<?xml version="1.0" encoding="UTF-8" standalone="no"?>
<!-- Created with Inkscape (http://www.inkscape.org/) -->

<svg
   xmlns:dc="http://purl.org/dc/elements/1.1/"
   xmlns:cc="http://creativecommons.org/ns#"
   xmlns:rdf="http://www.w3.org/1999/02/22-rdf-syntax-ns#"
   xmlns:svg="http://www.w3.org/2000/svg"
   xmlns="http://www.w3.org/2000/svg"
   xmlns:xlink="http://www.w3.org/1999/xlink"
   xmlns:sodipodi="http://sodipodi.sourceforge.net/DTD/sodipodi-0.dtd"
   xmlns:inkscape="http://www.inkscape.org/namespaces/inkscape"
   width="240"
   height="200"
   id="svg9089"
   sodipodi:version="0.32"
   inkscape:version="0.48.2 r9819"
   version="1.0"
   sodipodi:docname="sprite.svg"
   inkscape:output_extension="org.inkscape.output.svg.inkscape"
   inkscape:export-filename="/Users/tristen/devseed/rw-drc/images/sprite.png"
   inkscape:export-xdpi="90"
   inkscape:export-ydpi="90">
  <defs
     id="defs9091">
    <linearGradient
       inkscape:collect="always"
       id="linearGradient3815">
      <stop
         style="stop-color:#f4f4f0;stop-opacity:1;"
         offset="0"
         id="stop3817" />
      <stop
         style="stop-color:#f4f4f0;stop-opacity:0;"
         offset="1"
         id="stop3819" />
    </linearGradient>
    <linearGradient
       inkscape:collect="always"
       id="linearGradient3801">
      <stop
         style="stop-color:#000000;stop-opacity:1;"
         offset="0"
         id="stop3803" />
      <stop
         style="stop-color:#000000;stop-opacity:0;"
         offset="1"
         id="stop3805" />
    </linearGradient>
    <linearGradient
       inkscape:collect="always"
       xlink:href="#linearGradient3339"
       id="linearGradient10962"
       gradientUnits="userSpaceOnUse"
       gradientTransform="matrix(-1,0,0,-1,420,520)"
       x1="31"
       y1="133"
       x2="31"
       y2="137" />
    <linearGradient
       inkscape:collect="always"
       id="linearGradient7429">
      <stop
         style="stop-color:#505050;stop-opacity:1;"
         offset="0"
         id="stop7431" />
      <stop
         style="stop-color:#6c6c6c;stop-opacity:1"
         offset="1"
         id="stop7433" />
    </linearGradient>
    <linearGradient
       inkscape:collect="always"
       xlink:href="#linearGradient7429"
       id="linearGradient7583"
       gradientUnits="userSpaceOnUse"
       gradientTransform="translate(-590.00001,-120)"
       x1="970.5"
       y1="240"
       x2="970.5"
       y2="220" />
    <linearGradient
       id="linearGradient5066-0">
      <stop
         id="stop5068-7"
         offset="0"
         style="stop-color:#3b9df9;stop-opacity:1;" />
      <stop
         style="stop-color:#b9a7e4;stop-opacity:1;"
         offset="0.41017279"
         id="stop5887" />
      <stop
         id="stop6014"
         offset="0.57410067"
         style="stop-color:#f284bb;stop-opacity:1;" />
      <stop
         style="stop-color:#f15050;stop-opacity:1;"
         offset="1"
         id="stop5070-3" />
    </linearGradient>
    <linearGradient
       inkscape:collect="always"
       xlink:href="#linearGradient5066-0"
       id="linearGradient6025"
       gradientUnits="userSpaceOnUse"
       x1="1732.6053"
       y1="549.81177"
       x2="1634"
       y2="576.36218" />
    <linearGradient
       inkscape:collect="always"
       id="linearGradient3339">
      <stop
         style="stop-color:#606060;stop-opacity:1"
         offset="0"
         id="stop3341" />
      <stop
         style="stop-color:#808080;stop-opacity:1"
         offset="1"
         id="stop3343" />
    </linearGradient>
    <linearGradient
       inkscape:collect="always"
       xlink:href="#linearGradient3339"
       id="linearGradient5380"
       gradientUnits="userSpaceOnUse"
       gradientTransform="matrix(-1,0,0,-1,415,280)"
       x1="10"
       y1="150"
       x2="10"
       y2="190" />
    <linearGradient
       inkscape:collect="always"
       xlink:href="#linearGradient6974"
       id="linearGradient11383"
       x1="50"
       y1="1030"
       x2="70"
       y2="1050"
       gradientUnits="userSpaceOnUse"
       gradientTransform="translate(330,-970)" />
    <linearGradient
       inkscape:collect="always"
       id="linearGradient6974">
      <stop
         style="stop-color:#fefefd;stop-opacity:1"
         offset="0"
         id="stop6976" />
      <stop
         style="stop-color:#f4f4f0;stop-opacity:1"
         offset="1"
         id="stop6978" />
    </linearGradient>
    <linearGradient
       inkscape:collect="always"
       xlink:href="#linearGradient6974"
       id="linearGradient2853"
       gradientUnits="userSpaceOnUse"
       gradientTransform="matrix(2,0,0,1,-39.999996,-19.999999)"
       x1="20"
       y1="20"
       x2="220"
       y2="20" />
    <inkscape:perspective
       sodipodi:type="inkscape:persp3d"
       inkscape:vp_x="0 : 526.18109 : 1"
       inkscape:vp_y="0 : 1000 : 0"
       inkscape:vp_z="744.09448 : 526.18109 : 1"
       inkscape:persp3d-origin="372.04724 : 350.78739 : 1"
       id="perspective9097" />
    <linearGradient
       inkscape:collect="always"
       xlink:href="#linearGradient5066-0"
       id="linearGradient2669"
       gradientUnits="userSpaceOnUse"
       x1="1732.6053"
       y1="549.81177"
       x2="1634"
       y2="576.36218" />
    <linearGradient
       inkscape:collect="always"
       xlink:href="#linearGradient5066-0"
       id="linearGradient3688"
       gradientUnits="userSpaceOnUse"
       x1="1732.6053"
       y1="549.81177"
       x2="1634"
       y2="576.36218" />
    <linearGradient
       inkscape:collect="always"
       xlink:href="#linearGradient5066-0"
       id="linearGradient3696"
       gradientUnits="userSpaceOnUse"
       x1="1732.6053"
       y1="549.81177"
       x2="1634"
       y2="576.36218" />
    <linearGradient
       inkscape:collect="always"
       xlink:href="#linearGradient5066-0"
       id="linearGradient3702"
       gradientUnits="userSpaceOnUse"
       x1="1732.6053"
       y1="549.81177"
       x2="1634"
       y2="576.36218" />
    <linearGradient
       inkscape:collect="always"
       xlink:href="#linearGradient5066-0"
       id="linearGradient3705"
       gradientUnits="userSpaceOnUse"
       x1="1732.6053"
       y1="549.81177"
       x2="1634"
       y2="576.36218"
       gradientTransform="matrix(0.5281928,0,0,0.5281928,-798.41743,-270.62104)" />
    <linearGradient
       inkscape:collect="always"
       xlink:href="#linearGradient5066-0"
       id="linearGradient3711"
       gradientUnits="userSpaceOnUse"
       gradientTransform="matrix(0.5281928,0,0,0.5281928,-798.41743,-270.62104)"
       x1="1732.6053"
       y1="549.81177"
       x2="1634"
       y2="576.36218" />
    <linearGradient
       inkscape:collect="always"
       xlink:href="#linearGradient3339"
       id="linearGradient8439"
       gradientUnits="userSpaceOnUse"
       gradientTransform="matrix(-1,0,0,1,420,220)"
       x1="31"
       y1="133"
       x2="31"
       y2="137" />
    <linearGradient
       inkscape:collect="always"
       xlink:href="#linearGradient5066-0"
       id="linearGradient2472"
       gradientUnits="userSpaceOnUse"
       gradientTransform="matrix(0.5281928,0,0,0.5281928,-798.41743,-270.62104)"
       x1="1540.001"
       y1="483.95404"
       x2="1511.6023"
       y2="512.35278" />
    <linearGradient
       inkscape:collect="always"
       xlink:href="#linearGradient3801"
       id="linearGradient3809"
       x1="42"
       y1="45"
       x2="42"
       y2="95"
       gradientUnits="userSpaceOnUse"
       gradientTransform="translate(0,200)" />
    <linearGradient
       inkscape:collect="always"
       xlink:href="#linearGradient3815"
       id="linearGradient3821"
       x1="0"
       y1="385"
       x2="240"
       y2="385"
       gradientUnits="userSpaceOnUse" />
    <linearGradient
       inkscape:collect="always"
       xlink:href="#linearGradient3815"
       id="linearGradient3824"
       gradientUnits="userSpaceOnUse"
       x1="120"
       y1="370"
       x2="120"
       y2="415"
       gradientTransform="translate(0,-200)" />
    <linearGradient
       inkscape:collect="always"
       xlink:href="#linearGradient3815"
       id="linearGradient3829"
       gradientUnits="userSpaceOnUse"
       x1="120"
       y1="370"
       x2="120"
       y2="415" />
  </defs>
  <sodipodi:namedview
     id="base"
     pagecolor="#ffffff"
     bordercolor="#666666"
     borderopacity="1.0"
     gridtolerance="10000"
     guidetolerance="10"
     objecttolerance="10"
     inkscape:pageopacity="0.0"
     inkscape:pageshadow="2"
     inkscape:zoom="10.599948"
     inkscape:cx="72.835182"
     inkscape:cy="130.79994"
     inkscape:document-units="px"
     inkscape:current-layer="layer1"
     showgrid="true"
     showguides="true"
     inkscape:guide-bbox="true"
     inkscape:snap-bbox="true"
     inkscape:snap-nodes="true"
     inkscape:bbox-nodes="true"
     inkscape:bbox-paths="true"
     inkscape:window-width="1920"
     inkscape:window-height="1058"
     inkscape:window-x="0"
     inkscape:window-y="0"
     inkscape:window-maximized="1">
    <inkscape:grid
       type="xygrid"
       id="grid9104"
       visible="true"
       enabled="true"
       empspacing="5"
       snapvisiblegridlinesonly="true" />
  </sodipodi:namedview>
  <metadata
     id="metadata9094">
    <rdf:RDF>
      <cc:Work
         rdf:about="">
        <dc:format>image/svg+xml</dc:format>
        <dc:type
           rdf:resource="http://purl.org/dc/dcmitype/StillImage" />
        <dc:title></dc:title>
      </cc:Work>
    </rdf:RDF>
  </metadata>
  <g
     inkscape:groupmode="layer"
     id="layer3"
     inkscape:label="underlay"
     style="display:none"
     transform="translate(0,-200)">
    <rect
       style="color:#000000;fill:#e6e6e6;fill-opacity:1;fill-rule:nonzero;stroke:none;stroke-width:0.20100001;marker:none;visibility:visible;display:inline;overflow:visible;enable-background:accumulate"
       id="rect37331"
       width="240"
       height="200"
       x="0"
       y="200" />
  </g>
  <g
     inkscape:label="sprite"
     inkscape:groupmode="layer"
     id="layer1"
     style="display:inline"
     transform="translate(0,-200)">
    <g
       id="g3707"
       transform="matrix(0.9695052,0,0,0.9695052,5.7141868,201.56724)"
       inkscape:export-xdpi="90"
       inkscape:export-ydpi="90">
      <path
         sodipodi:nodetypes="csscccssccccccccccc"
         style="fill:url(#linearGradient3711);fill-opacity:1;fill-rule:nonzero;stroke:none;stroke-width:0.57473511px;marker:none;visibility:visible;display:inline;overflow:visible;enable-background:accumulate"
         d="m 109.99992,12.808077 c 2.42599,1.011542 3.97032,2.436522 4.29416,4.192356 0.96437,5.229072 -9.27306,11.484565 -22.879731,13.985843 -13.606775,2.501284 -25.428891,0.289904 -26.39316,-4.939173 -0.267847,-1.452377 0.334874,-2.989566 1.629422,-4.497873 l -0.831745,-1.663364 c -3.8744,2.67246 -5.97703,5.608082 -5.482272,8.299848 1.097373,5.970369 14.541042,8.490952 30.025384,5.635072 15.484392,-2.855875 27.134162,-10.001331 26.036792,-15.971695 -0.13078,-0.711639 -0.43555,-1.37582 -0.89957,-1.985851 -0.0881,-0.115791 -0.18925,-0.227477 -0.28855,-0.339465 -0.005,-0.0056 -0.0122,-0.01136 -0.0169,-0.01696 -0.10712,-0.114987 -0.21825,-0.240095 -0.33947,-0.356435 -0.25433,-0.244025 -0.54055,-0.47681 -0.86566,-0.712875 -0.10474,-0.07605 -0.20958,-0.163687 -0.32246,-0.237623 -0.0591,-0.03888 -0.12597,-0.08058 -0.18672,-0.118812 -0.0417,-0.02578 -0.0928,-0.04241 -0.13579,-0.06789 -0.86767,-0.514137 -1.95469,-0.963656 -3.34368,-1.205093 l -5e-5,-1.6e-5 z"
         id="path4933-0-6"
         inkscape:connector-curvature="0" />
      <path
         id="path3216-7-2"
         d="m 58.279805,4.0538587 c -2.383681,0 -4.093494,1.3995208 -4.093494,3.8459039 l 0,17.1002414 2.938072,0 0,-12.280482 6.305302,0 3.829398,12.280482 2.607952,0 3.152624,-10.448313 3.185689,10.448313 2.607952,0 4.654699,-14.937952 -3.185689,0 -2.773012,10.365784 -3.350697,-10.365784 -2.244819,0 -3.268193,10.365784 -2.905061,-10.365784 -8.616145,0 c -5.3e-5,-0.5331844 0,-1.018377 0,-1.5515665 -5.3e-5,-1.2859171 0.31512,-1.6010844 1.601058,-1.6010844 0,0 2.74,0 2.74,0 l 0,-2.8555424 -3.185636,0 z m -30.239038,0.01648 0,20.9296393 3.004097,0 0,-20.9296393 -3.004097,0 z m 6.43735,0 0,3.0206025 3.004097,0 0,-3.0206025 -3.004097,0 z m 63.135519,0 0,20.9296393 3.020634,0 0,-1.700121 c 0.94092,1.191825 2.37507,1.881687 3.9119,1.881687 3.26185,0 5.01783,-2.406346 5.01783,-5.48 l 0,-4.588675 c 0,-2.822747 -2.13237,-5.2324095 -5.01783,-5.2324095 -1.56821,5.2e-6 -2.87691,0.6882135 -3.9119,1.8486745 l 0,-7.6587953 -3.020634,0 z M 11.320137,9.8804592 c -1.568204,5.2e-6 -2.8752699,0.6882138 -3.878889,1.8486748 l 0,-1.667109 -3.020629,0 0,14.937953 3.020629,0 0,-9.028796 c 0,-1.756383 1.2493344,-3.119638 3.037109,-3.119638 0.846798,0 1.322066,0.257451 1.980723,0.759277 l 2.063226,-2.607952 C 13.612758,10.250141 12.48063,9.8804592 11.320137,9.8804592 z m 8.748194,0 c -3.355926,5.2e-6 -6.173254,2.7034278 -6.173254,6.0907228 l 0,2.624458 c 0,3.826387 2.629133,6.585904 6.486895,6.585904 2.069987,0 4.081821,-0.841685 5.430455,-2.409879 L 23.58414,20.790942 c -0.846851,0.909548 -1.881634,1.419518 -3.136144,1.419518 -2.195487,0 -3.581834,-1.35333 -3.581834,-3.548796 l 9.309398,0 0,-2.294337 c 0,-3.575474 -2.406288,-6.4868678 -6.107229,-6.4868678 z m 25.600871,0 c -3.355979,5.2e-6 -6.173253,2.7034278 -6.173253,6.0907228 l 0,2.624458 c -5.3e-5,3.826387 2.629079,6.585904 6.486841,6.585904 2.069988,0 4.081821,-0.841685 5.430509,-2.409879 l -2.22834,-1.980723 c -0.846852,0.909548 -1.881581,1.419518 -3.136145,1.419518 -2.195486,0 -3.581781,-1.35333 -3.581781,-3.548796 l 9.325878,0 0,-2.294337 c 0,-3.575474 -2.422821,-6.4868678 -6.123709,-6.4868678 z m 43.98853,0 c -3.355926,5.2e-6 -6.173253,2.7034278 -6.173253,6.0907228 l 0,2.624458 c 0,3.826387 2.629132,6.585904 6.486894,6.585904 2.069988,0 4.081821,-0.841685 5.430456,-2.409879 l -2.228287,-1.980723 c -0.846852,0.909548 -1.881634,1.419518 -3.136145,1.419518 -2.195486,0 -3.581834,-1.35333 -3.581834,-3.548796 l 9.309398,0 0,-2.294337 c 0,-3.575474 -2.406288,-6.4868678 -6.107229,-6.4868678 z m -55.179615,0.1815658 0,14.937953 3.004097,0 0,-14.937953 -3.004097,0 z m -14.442798,2.789519 c 1.819096,0 3.137782,1.381419 3.169156,3.169156 l -6.338313,0 c 0.125446,-1.787737 1.318686,-3.169156 3.169157,-3.169156 z m 25.600871,0 c 1.819096,0 3.137782,1.381419 3.169157,3.169156 l -6.338314,0 c 0.125446,-1.787737 1.318686,-3.169156 3.169157,-3.169156 z m 43.98853,0 c 1.819096,0 3.137782,1.381419 3.169157,3.169156 l -6.338314,0 c 0.125446,-1.787737 1.318686,-3.169156 3.169157,-3.169156 z m 14.01364,0 c 1.72497,0 2.95455,1.392976 2.95455,3.086626 l 0,3.136145 c 0,1.787737 -1.13709,3.136145 -2.98756,3.136145 -1.97597,0 -2.97108,-1.516764 -2.97108,-3.367229 l 0,-2.905061 c 0,-1.756378 1.24769,-3.086626 3.00409,-3.086626 z"
         style="font-size:24px;font-style:normal;font-variant:normal;font-weight:normal;font-stretch:normal;text-indent:0;text-align:start;text-decoration:none;line-height:100%;letter-spacing:normal;word-spacing:normal;text-transform:none;direction:ltr;block-progression:tb;writing-mode:lr-tb;text-anchor:start;fill:#404040;fill-opacity:1;fill-rule:nonzero;stroke:none;stroke-width:1.62999189;marker:none;visibility:visible;display:inline;overflow:visible;enable-background:accumulate;font-family:Futura Lt BT;-inkscape-font-specification:Futura Lt BT"
         inkscape:connector-curvature="0" />
    </g>
    <path
       sodipodi:nodetypes="cccccccc"
       inkscape:connector-curvature="0"
       id="path37333"
       d="m 42,245 -12,8 -30,0 0,42 85,0 0,-42 -30,0 z"
       style="color:#000000;fill:#ee5555;fill-opacity:1;fill-rule:nonzero;stroke:none;stroke-width:1;marker:none;visibility:visible;display:inline;overflow:visible;enable-background:accumulate" />
    <path
       style="font-size:medium;font-style:normal;font-variant:normal;font-weight:normal;font-stretch:normal;text-indent:0;text-align:start;text-decoration:none;line-height:normal;letter-spacing:normal;word-spacing:normal;text-transform:none;direction:ltr;block-progression:tb;writing-mode:lr-tb;text-anchor:start;baseline-shift:baseline;opacity:0.50000000000000000;color:#000000;fill:url(#linearGradient3809);fill-opacity:1;fill-rule:nonzero;stroke:none;stroke-width:1.97157585999999996;marker:none;visibility:visible;display:inline;overflow:visible;enable-background:accumulate;font-family:Sans;-inkscape-font-specification:Sans"
       d="m 42,245 -12,8 -30,0 0,42 0,0 c 40,0 85,0 85,0 l 0,-42 -30,0 z m 0,3 12,7 29,0 0,38 -81,0 0,-38 29,0 z"
       id="path37353"
       inkscape:connector-curvature="0"
       sodipodi:nodetypes="ccccccccccccccccc" />
    <rect
       style="color:#000000;fill:#000000;fill-opacity:1;fill-rule:nonzero;stroke:none;stroke-width:2;marker:none;visibility:visible;display:inline;overflow:visible;enable-background:accumulate"
       id="rect37359"
       width="20"
       height="20"
       x="245"
       y="225" />
    <path
       style="fill:#ffffff;fill-opacity:1;fill-rule:nonzero;stroke:none;stroke-width:1.62999189;marker:none;visibility:visible;display:inline;overflow:visible;enable-background:accumulate"
       d="m 226.5,262.5 1,1 2.5,-2.5 2.5,2.5 1,-1 -2.5,-2.5 2.5,-2.5 -1,-1 -2.5,2.5 -2.5,-2.5 -1,1 2.5,2.5 -2.5,2.5 z"
       id="path7575"
       inkscape:connector-curvature="0" />
    <path
       id="rect11129"
       d="m 224,213 c 0,1.662 1.338,3 3,3 l 6,0 c 1.662,0 3,-1.338 3,-3 l 0,-6 c 0,-1.662 -1.338,-3 -3,-3 l -6,0 c -1.662,0 -3,1.338 -3,3 l 0,6 z m 3,-2.5 0,-1 c 0,-0.277 0.223,-0.5 0.5,-0.5 l 1.5,0 0,-1.5 c 0,-0.277 0.223,-0.5 0.5,-0.5 l 1,0 c 0.277,0 0.5,0.223 0.5,0.5 l 0,1.5 1.5,0 c 0.277,0 0.5,0.223 0.5,0.5 l 0,1 c 0,0.277 -0.223,0.5 -0.5,0.5 l -1.5,0 0,1.5 c 0,0.277 -0.223,0.5 -0.5,0.5 l -1,0 c -0.277,0 -0.5,-0.223 -0.5,-0.5 l 0,-1.5 -1.5,0 c -0.277,0 -0.5,-0.223 -0.5,-0.5 z"
       style="fill:#a0a0a0;fill-opacity:1;fill-rule:nonzero;stroke:none;stroke-width:2;marker:none;visibility:visible;display:inline;overflow:visible;enable-background:new"
       inkscape:connector-curvature="0" />
    <path
       inkscape:connector-curvature="0"
       style="fill:#a0a0a0;fill-opacity:1;fill-rule:nonzero;stroke:none;stroke-width:2;marker:none;visibility:visible;display:inline;overflow:visible;enable-background:new"
       d="m 224,238 c 0,1.662 1.338,3 3,3 l 6,0 c 1.662,0 3,-1.338 3,-3 l 0,-6 c 0,-1.662 -1.338,-3 -3,-3 l -6,0 c -1.662,0 -3,1.338 -3,3 z m 3,-2.5 0,-1 c 0,-0.277 0.223,-0.5 0.5,-0.5 l 5,0 c 0.277,0 0.5,0.223 0.5,0.5 l 0,1 c 0,0.277 -0.223,0.5 -0.5,0.5 l -5,0 c -0.277,0 -0.5,-0.223 -0.5,-0.5 z"
       id="path3811"
       sodipodi:nodetypes="sssssssssssccssccs" />
    <path
       style="color:#000000;fill:url(#linearGradient3829);fill-opacity:1;fill-rule:nonzero;stroke:none;stroke-width:2;marker:none;visibility:visible;display:inline;overflow:visible;enable-background:accumulate"
       d="m 0,370 0,30 240,0 0,-30 z"
       id="rect3813"
       inkscape:connector-curvature="0"
       sodipodi:nodetypes="ccccc" />
  </g>
</svg>
