<?xml version="1.0" encoding="UTF-8" standalone="no"?>
<!-- Created with Inkscape (http://www.inkscape.org/) -->

<svg
   xmlns:dc="http://purl.org/dc/elements/1.1/"
   xmlns:cc="http://creativecommons.org/ns#"
   xmlns:rdf="http://www.w3.org/1999/02/22-rdf-syntax-ns#"
   xmlns:svg="http://www.w3.org/2000/svg"
   xmlns="http://www.w3.org/2000/svg"
   xmlns:xlink="http://www.w3.org/1999/xlink"
   xmlns:sodipodi="http://sodipodi.sourceforge.net/DTD/sodipodi-0.dtd"
   xmlns:inkscape="http://www.inkscape.org/namespaces/inkscape"
   width="240"
   height="400"
   id="svg9089"
   sodipodi:version="0.32"
   inkscape:version="0.48.2 r9819"
   version="1.0"
   sodipodi:docname="sprite.svg"
   inkscape:output_extension="org.inkscape.output.svg.inkscape"
   inkscape:export-filename="/Users/tristen/devseed/rw-drc/images/sprite.png"
   inkscape:export-xdpi="90"
   inkscape:export-ydpi="90">
  <defs
     id="defs9091">
    <linearGradient
       id="linearGradient5066-0">
      <stop
         id="stop5068-7"
         offset="0"
         style="stop-color:#3b9df9;stop-opacity:1;" />
      <stop
         style="stop-color:#b9a7e4;stop-opacity:1;"
         offset="0.41017279"
         id="stop5887" />
      <stop
         id="stop6014"
         offset="0.57410067"
         style="stop-color:#f284bb;stop-opacity:1;" />
      <stop
         style="stop-color:#f15050;stop-opacity:1;"
         offset="1"
         id="stop5070-3" />
    </linearGradient>
    <linearGradient
       inkscape:collect="always"
       xlink:href="#linearGradient5066-0"
       id="linearGradient6025"
       gradientUnits="userSpaceOnUse"
       x1="1732.6053"
       y1="549.81177"
       x2="1634"
       y2="576.36218" />
    <inkscape:perspective
       sodipodi:type="inkscape:persp3d"
       inkscape:vp_x="0 : 526.18109 : 1"
       inkscape:vp_y="0 : 1000 : 0"
       inkscape:vp_z="744.09448 : 526.18109 : 1"
       inkscape:persp3d-origin="372.04724 : 350.78739 : 1"
       id="perspective9097" />
    <linearGradient
       inkscape:collect="always"
       xlink:href="#linearGradient5066-0"
       id="linearGradient2669"
       gradientUnits="userSpaceOnUse"
       x1="1732.6053"
       y1="549.81177"
       x2="1634"
       y2="576.36218" />
    <linearGradient
       inkscape:collect="always"
       xlink:href="#linearGradient5066-0"
       id="linearGradient3688"
       gradientUnits="userSpaceOnUse"
       x1="1732.6053"
       y1="549.81177"
       x2="1634"
       y2="576.36218" />
    <linearGradient
       inkscape:collect="always"
       xlink:href="#linearGradient5066-0"
       id="linearGradient3696"
       gradientUnits="userSpaceOnUse"
       x1="1732.6053"
       y1="549.81177"
       x2="1634"
       y2="576.36218" />
    <linearGradient
       inkscape:collect="always"
       xlink:href="#linearGradient5066-0"
       id="linearGradient3702"
       gradientUnits="userSpaceOnUse"
       x1="1732.6053"
       y1="549.81177"
       x2="1634"
       y2="576.36218" />
    <linearGradient
       inkscape:collect="always"
       xlink:href="#linearGradient5066-0"
       id="linearGradient3705"
       gradientUnits="userSpaceOnUse"
       x1="1732.6053"
       y1="549.81177"
       x2="1634"
       y2="576.36218"
       gradientTransform="matrix(0.5281928,0,0,0.5281928,-798.41743,-270.62104)" />
    <linearGradient
       inkscape:collect="always"
       xlink:href="#linearGradient5066-0"
       id="linearGradient3711"
       gradientUnits="userSpaceOnUse"
       gradientTransform="matrix(0.5281928,0,0,0.5281928,-798.41743,-270.62104)"
       x1="1732.6053"
       y1="549.81177"
       x2="1634"
       y2="576.36218" />
  </defs>
  <sodipodi:namedview
     id="base"
     pagecolor="#ffffff"
     bordercolor="#666666"
     borderopacity="1.0"
     gridtolerance="10000"
     guidetolerance="10"
     objecttolerance="10"
     inkscape:pageopacity="0.0"
     inkscape:pageshadow="2"
     inkscape:zoom="8.9350201"
     inkscape:cx="34.28905"
     inkscape:cy="34.570458"
     inkscape:document-units="px"
     inkscape:current-layer="layer1"
     showgrid="true"
     showguides="true"
     inkscape:guide-bbox="true"
     inkscape:snap-bbox="true"
     inkscape:snap-nodes="true"
     inkscape:bbox-nodes="true"
     inkscape:bbox-paths="true"
     inkscape:window-width="1450"
     inkscape:window-height="986"
     inkscape:window-x="303"
     inkscape:window-y="37"
     inkscape:window-maximized="0">
    <inkscape:grid
       type="xygrid"
       id="grid9104"
       visible="true"
       enabled="true"
       empspacing="5"
       snapvisiblegridlinesonly="true" />
  </sodipodi:namedview>
  <metadata
     id="metadata9094">
    <rdf:RDF>
      <cc:Work
         rdf:about="">
        <dc:format>image/svg+xml</dc:format>
        <dc:type
           rdf:resource="http://purl.org/dc/dcmitype/StillImage" />
        <dc:title></dc:title>
      </cc:Work>
    </rdf:RDF>
  </metadata>
  <g
     inkscape:groupmode="layer"
     id="layer3"
     inkscape:label="underlay"
     style="display:none"
     sodipodi:insensitive="true">
    <rect
       style="color:#000000;fill:#e6e6e6;fill-opacity:1;fill-rule:nonzero;stroke:none;stroke-width:0.20100001;marker:none;visibility:visible;display:inline;overflow:visible;enable-background:accumulate"
       id="rect37331"
       width="240"
       height="400"
       x="0"
       y="0" />
  </g>
  <g
     inkscape:label="sprite"
     inkscape:groupmode="layer"
     id="layer1"
     style="display:inline">
    <path
       sodipodi:type="arc"
       style="fill:#c0c0c0;fill-opacity:1;fill-rule:nonzero;stroke:none;stroke-width:0.97799516;marker:none;visibility:visible;display:inline;overflow:visible;enable-background:accumulate"
       id="path2445"
       sodipodi:cx="135"
       sodipodi:cy="150"
       sodipodi:rx="8"
       sodipodi:ry="8"
       d="m 143,150 a 8,8 0 1 1 -16,0 8,8 0 1 1 16,0 z"
       transform="translate(-5,-95)" />
    <g
       id="g9114"
       transform="translate(0,5)">
      <path
         sodipodi:type="arc"
         style="fill:#ffffff;fill-opacity:1;fill-rule:nonzero;stroke:none;stroke-width:0;marker:none;visibility:visible;display:inline;overflow:visible;enable-background:accumulate"
         id="path9112"
         sodipodi:cx="760.5"
         sodipodi:cy="100"
         sodipodi:rx="6.5"
         sodipodi:ry="6"
         d="m 767,100 a 6.5,6 0 1 1 -13,0 6.5,6 0 1 1 13,0 z"
         transform="matrix(0.9230769,0,0,1,-691.49998,-50)" />
      <g
         style="fill:#a0a0a0;fill-opacity:1;display:inline"
         id="g5423"
         transform="translate(-625,-160)">
        <path
           inkscape:connector-curvature="0"
           style="fill:#a0a0a0;fill-opacity:1;stroke:none;display:inline;enable-background:new"
           d="m 635.5,203 c -3.864,0 -7,3.136 -7,7 0,3.864 3.136,7 7,7 3.864,0 7,-3.136 7,-7 0,-3.864 -3.136,-7 -7,-7 z m 0,1.5 c 3.036,0 5.5,2.464 5.5,5.5 0,3.036 -2.464,5.5 -5.5,5.5 -3.036,0 -5.5,-2.464 -5.5,-5.5 0,-3.036 2.464,-5.5 5.5,-5.5 z m -0.5,1.5 0,5 4,-1 0,-1 -3,0.75 0,-3.75 -1,0 z"
           id="path5429"
           sodipodi:nodetypes="csssccssscccccccc" />
      </g>
    </g>
    <g
       id="g9119"
       transform="translate(0,5)">
      <path
         transform="matrix(0.9230769,0,0,1,-671.49998,-50)"
         d="m 767,100 a 6.5,6 0 1 1 -13,0 6.5,6 0 1 1 13,0 z"
         sodipodi:ry="6"
         sodipodi:rx="6.5"
         sodipodi:cy="100"
         sodipodi:cx="760.5"
         id="path11236"
         style="fill:#ffffff;fill-opacity:1;fill-rule:nonzero;stroke:none;stroke-width:0;marker:none;visibility:visible;display:inline;overflow:visible;enable-background:accumulate"
         sodipodi:type="arc" />
      <path
         inkscape:connector-curvature="0"
         style="fill:#202020;fill-opacity:1;stroke:none;display:inline;enable-background:new"
         d="m 30.500017,43.000003 c -3.864,0 -7,3.136 -7,6.999997 0,3.864 3.136,7 7,7 3.864,0 7,-3.136 7,-7 0,-3.863997 -3.136,-6.999997 -7,-6.999997 l 0,0 0,0 0,0 0,0 z m 0,1.5 c 3.036,0 5.5,2.464 5.5,5.499997 0,3.036 -2.464,5.5 -5.5,5.5 -3.036,0 -5.5,-2.464 -5.5,-5.5 0,-3.035997 2.464,-5.499997 5.5,-5.499997 l 0,0 0,0 0,0 0,0 z m -0.5,1.5 0,4.999997 4,-1 0,-0.999997 -3,0.75 0,-3.75 -1,0 z"
         id="path11238"
         sodipodi:nodetypes="csssccssscccccccc" />
    </g>
    <path
       style="fill:#c0c0c0;fill-opacity:1;fill-rule:nonzero;stroke:none;stroke-width:1.62999189;marker:none;visibility:visible;display:inline;overflow:visible;enable-background:accumulate"
       d="m 47,48 c -1.662,0 -3,1.338 -3,3 l 0,7 c 0,1.662 1.338,3 3,3 l 7,0 c 1.662,0 3,-1.338 3,-3 l 0,-7 c 0,-1.662 -1.338,-3 -3,-3 l -7,0 z m 1,3.5 2.5,2 2.5,-2 0,1.5 -2.5,2 -2.5,-2 0,-1.5 z m 0,3 2.5,2 2.5,-2 0,1.5 -2.5,2 -2.5,-2 0,-1.5 z"
       id="rect5299"
       sodipodi:nodetypes="ccccccccccccccccccccccc"
       inkscape:connector-curvature="0" />
    <path
       sodipodi:nodetypes="ccccccccccccccccccccccc"
       id="path5311"
       d="m 67,61 c -1.662,0 -3,-1.338 -3,-3 l 0,-7 c 0,-1.662 1.338,-3 3,-3 l 7,0 c 1.662,0 3,1.338 3,3 l 0,7 c 0,1.662 -1.338,3 -3,3 l -7,0 z m 1,-3.5 2.5,-2 2.5,2 0,-1.5 -2.5,-2 -2.5,2 0,1.5 z m 0,-3 2.5,-2 2.5,2 0,-1.5 -2.5,-2 -2.5,2 0,1.5 z"
       style="fill:#808080;fill-opacity:1;fill-rule:nonzero;stroke:none;stroke-width:1.62999189;marker:none;visibility:visible;display:inline;overflow:visible;enable-background:accumulate"
       inkscape:connector-curvature="0" />
    <g
       id="g3707"
       transform="matrix(0.9695052,0,0,0.9695052,5.7141868,1.5672407)"
       inkscape:export-xdpi="90"
       inkscape:export-ydpi="90">
      <path
         sodipodi:nodetypes="csscccssccccccccccc"
         style="fill:url(#linearGradient3711);fill-opacity:1;fill-rule:nonzero;stroke:none;stroke-width:0.57473511px;marker:none;visibility:visible;display:inline;overflow:visible;enable-background:accumulate"
         d="m 109.99992,12.808077 c 2.42599,1.011542 3.97032,2.436522 4.29416,4.192356 0.96437,5.229072 -9.27306,11.484565 -22.879731,13.985843 -13.606775,2.501284 -25.428891,0.289904 -26.39316,-4.939173 -0.267847,-1.452377 0.334874,-2.989566 1.629422,-4.497873 l -0.831745,-1.663364 c -3.8744,2.67246 -5.97703,5.608082 -5.482272,8.299848 1.097373,5.970369 14.541042,8.490952 30.025384,5.635072 15.484392,-2.855875 27.134162,-10.001331 26.036792,-15.971695 -0.13078,-0.711639 -0.43555,-1.37582 -0.89957,-1.985851 -0.0881,-0.115791 -0.18925,-0.227477 -0.28855,-0.339465 -0.005,-0.0056 -0.0122,-0.01136 -0.0169,-0.01696 -0.10712,-0.114987 -0.21825,-0.240095 -0.33947,-0.356435 -0.25433,-0.244025 -0.54055,-0.47681 -0.86566,-0.712875 -0.10474,-0.07605 -0.20958,-0.163687 -0.32246,-0.237623 -0.0591,-0.03888 -0.12597,-0.08058 -0.18672,-0.118812 -0.0417,-0.02578 -0.0928,-0.04241 -0.13579,-0.06789 -0.86767,-0.514137 -1.95469,-0.963656 -3.34368,-1.205093 l -5e-5,-1.6e-5 z"
         id="path4933-0-6"
         inkscape:connector-curvature="0" />
      <path
         id="path3216-7-2"
         d="m 58.279805,4.0538587 c -2.383681,0 -4.093494,1.3995208 -4.093494,3.8459039 l 0,17.1002414 2.938072,0 0,-12.280482 6.305302,0 3.829398,12.280482 2.607952,0 3.152624,-10.448313 3.185689,10.448313 2.607952,0 4.654699,-14.937952 -3.185689,0 -2.773012,10.365784 -3.350697,-10.365784 -2.244819,0 -3.268193,10.365784 -2.905061,-10.365784 -8.616145,0 c -5.3e-5,-0.5331844 0,-1.018377 0,-1.5515665 -5.3e-5,-1.2859171 0.31512,-1.6010844 1.601058,-1.6010844 0,0 2.74,0 2.74,0 l 0,-2.8555424 -3.185636,0 z m -30.239038,0.01648 0,20.9296393 3.004097,0 0,-20.9296393 -3.004097,0 z m 6.43735,0 0,3.0206025 3.004097,0 0,-3.0206025 -3.004097,0 z m 63.135519,0 0,20.9296393 3.020634,0 0,-1.700121 c 0.94092,1.191825 2.37507,1.881687 3.9119,1.881687 3.26185,0 5.01783,-2.406346 5.01783,-5.48 l 0,-4.588675 c 0,-2.822747 -2.13237,-5.2324095 -5.01783,-5.2324095 -1.56821,5.2e-6 -2.87691,0.6882135 -3.9119,1.8486745 l 0,-7.6587953 -3.020634,0 z M 11.320137,9.8804592 c -1.568204,5.2e-6 -2.8752699,0.6882138 -3.878889,1.8486748 l 0,-1.667109 -3.020629,0 0,14.937953 3.020629,0 0,-9.028796 c 0,-1.756383 1.2493344,-3.119638 3.037109,-3.119638 0.846798,0 1.322066,0.257451 1.980723,0.759277 l 2.063226,-2.607952 C 13.612758,10.250141 12.48063,9.8804592 11.320137,9.8804592 z m 8.748194,0 c -3.355926,5.2e-6 -6.173254,2.7034278 -6.173254,6.0907228 l 0,2.624458 c 0,3.826387 2.629133,6.585904 6.486895,6.585904 2.069987,0 4.081821,-0.841685 5.430455,-2.409879 L 23.58414,20.790942 c -0.846851,0.909548 -1.881634,1.419518 -3.136144,1.419518 -2.195487,0 -3.581834,-1.35333 -3.581834,-3.548796 l 9.309398,0 0,-2.294337 c 0,-3.575474 -2.406288,-6.4868678 -6.107229,-6.4868678 z m 25.600871,0 c -3.355979,5.2e-6 -6.173253,2.7034278 -6.173253,6.0907228 l 0,2.624458 c -5.3e-5,3.826387 2.629079,6.585904 6.486841,6.585904 2.069988,0 4.081821,-0.841685 5.430509,-2.409879 l -2.22834,-1.980723 c -0.846852,0.909548 -1.881581,1.419518 -3.136145,1.419518 -2.195486,0 -3.581781,-1.35333 -3.581781,-3.548796 l 9.325878,0 0,-2.294337 c 0,-3.575474 -2.422821,-6.4868678 -6.123709,-6.4868678 z m 43.98853,0 c -3.355926,5.2e-6 -6.173253,2.7034278 -6.173253,6.0907228 l 0,2.624458 c 0,3.826387 2.629132,6.585904 6.486894,6.585904 2.069988,0 4.081821,-0.841685 5.430456,-2.409879 l -2.228287,-1.980723 c -0.846852,0.909548 -1.881634,1.419518 -3.136145,1.419518 -2.195486,0 -3.581834,-1.35333 -3.581834,-3.548796 l 9.309398,0 0,-2.294337 c 0,-3.575474 -2.406288,-6.4868678 -6.107229,-6.4868678 z m -55.179615,0.1815658 0,14.937953 3.004097,0 0,-14.937953 -3.004097,0 z m -14.442798,2.789519 c 1.819096,0 3.137782,1.381419 3.169156,3.169156 l -6.338313,0 c 0.125446,-1.787737 1.318686,-3.169156 3.169157,-3.169156 z m 25.600871,0 c 1.819096,0 3.137782,1.381419 3.169157,3.169156 l -6.338314,0 c 0.125446,-1.787737 1.318686,-3.169156 3.169157,-3.169156 z m 43.98853,0 c 1.819096,0 3.137782,1.381419 3.169157,3.169156 l -6.338314,0 c 0.125446,-1.787737 1.318686,-3.169156 3.169157,-3.169156 z m 14.01364,0 c 1.72497,0 2.95455,1.392976 2.95455,3.086626 l 0,3.136145 c 0,1.787737 -1.13709,3.136145 -2.98756,3.136145 -1.97597,0 -2.97108,-1.516764 -2.97108,-3.367229 l 0,-2.905061 c 0,-1.756378 1.24769,-3.086626 3.00409,-3.086626 z"
         style="font-size:24px;font-style:normal;font-variant:normal;font-weight:normal;font-stretch:normal;text-indent:0;text-align:start;text-decoration:none;line-height:100%;letter-spacing:normal;word-spacing:normal;text-transform:none;direction:ltr;block-progression:tb;writing-mode:lr-tb;text-anchor:start;fill:#404040;fill-opacity:1;fill-rule:nonzero;stroke:none;stroke-width:1.62999189;marker:none;visibility:visible;display:inline;overflow:visible;enable-background:accumulate;font-family:Futura Lt BT;-inkscape-font-specification:Futura Lt BT"
         inkscape:connector-curvature="0" />
    </g>
    <g
       id="g8972"
       transform="translate(0,-95)">
      <path
         style="fill:#ffffff;fill-opacity:1;stroke:none;stroke-width:1.63318503;marker:none;visibility:visible;display:inline;overflow:visible;enable-background:accumulate"
         d="m 90.015658,144.78262 1.732098,3.51288 3.939678,0.65708 -2.874645,2.74154 0.617305,3.80043 -3.428947,-1.86283 -3.587036,1.8119 0.705528,-3.8798 -2.750148,-2.68934 c 0,0 3.894496,-0.5745 3.894496,-0.5745 l 1.751671,-3.51736 z"
         id="path8970"
         sodipodi:nodetypes="ccccccccccc"
         inkscape:connector-curvature="0" />
      <path
         sodipodi:nodetypes="cccccccccccccccccccccc"
         id="path14364"
         d="m 89.997594,142.32433 -2.415085,4.89239 -5.532493,0.7938 3.941759,3.81147 -0.994813,5.44397 4.993893,-2.52088 4.849556,2.64786 -0.893596,-5.45177 3.996689,-3.79442 -5.479635,-0.91644 -2.466275,-4.90598 z m 0.0202,3.35164 1.443191,2.92695 3.282556,0.54748 -2.395166,2.28426 0.514341,3.16654 -2.857013,-1.55212 -2.988733,1.50968 0.587849,-3.23266 -2.291435,-2.24077 c 0,0 3.24491,-0.47868 3.24491,-0.47868 l 1.4595,-2.93068 z"
         style="fill:#c0c0c0;fill-opacity:1;stroke:none;stroke-width:1.63318503;marker:none;visibility:visible;display:inline;overflow:visible;enable-background:accumulate"
         inkscape:connector-curvature="0" />
    </g>
    <g
       id="g8976"
       transform="translate(20,-95)">
      <path
         sodipodi:nodetypes="ccccccccccc"
         id="path8978"
         d="m 90.015658,144.78262 1.732098,3.51288 3.939678,0.65708 -2.874645,2.74154 0.617305,3.80043 -3.428947,-1.86283 -3.587036,1.8119 0.705528,-3.8798 -2.750148,-2.68934 c 0,0 3.894496,-0.5745 3.894496,-0.5745 l 1.751671,-3.51736 z"
         style="fill:#ffe981;fill-opacity:1;stroke:none;stroke-width:1.63318503;marker:none;visibility:visible;display:inline;overflow:visible;enable-background:accumulate"
         inkscape:connector-curvature="0" />
      <path
         style="fill:#ffc941;fill-opacity:1;stroke:none;stroke-width:1.63318503;marker:none;visibility:visible;display:inline;overflow:visible;enable-background:accumulate"
         d="m 89.997594,142.32433 -2.415085,4.89239 -5.532493,0.7938 3.941759,3.81147 -0.994813,5.44397 4.993893,-2.52088 4.849556,2.64786 -0.893596,-5.45177 3.996689,-3.79442 -5.479635,-0.91644 -2.466275,-4.90598 z m 0.0202,3.35164 1.443191,2.92695 3.282556,0.54748 -2.395166,2.28426 0.514341,3.16654 -2.857013,-1.55212 -2.988733,1.50968 0.587849,-3.23266 -2.291435,-2.24077 c 0,0 3.24491,-0.47868 3.24491,-0.47868 l 1.4595,-2.93068 z"
         id="path8980"
         sodipodi:nodetypes="cccccccccccccccccccccc"
         inkscape:connector-curvature="0" />
    </g>
    <path
       transform="matrix(0.75,0,0,0.75,28.75,-57.5)"
       d="m 143,150 a 8,8 0 1 1 -16,0 8,8 0 1 1 16,0 z"
       sodipodi:ry="8"
       sodipodi:rx="8"
       sodipodi:cy="150"
       sodipodi:cx="135"
       id="path3221"
       style="fill:#ffffff;fill-opacity:1;fill-rule:nonzero;stroke:none;stroke-width:0.97799516;marker:none;visibility:visible;display:inline;overflow:visible;enable-background:accumulate"
       sodipodi:type="arc" />
    <path
       style="fill:#c0c0c0;fill-opacity:1;fill-rule:nonzero;stroke:none;stroke-width:0.97799516;marker:none;visibility:visible;display:inline;overflow:visible;enable-background:accumulate"
       d="m 125.5,54 2.5,0 1.5,1.5 2,-3.5 2.5,0 -3.5,6 -2,0"
       id="path2443"
       sodipodi:nodetypes="ccccccc"
       inkscape:connector-curvature="0" />
    <path
       d="m 143,150 a 8,8 0 1 1 -16,0 8,8 0 1 1 16,0 z"
       sodipodi:ry="8"
       sodipodi:rx="8"
       sodipodi:cy="150"
       sodipodi:cx="135"
       id="path3223"
       style="fill:#9cd64a;fill-opacity:1;fill-rule:nonzero;stroke:none;stroke-width:0.97799516;marker:none;visibility:visible;display:inline;overflow:visible;enable-background:accumulate"
       sodipodi:type="arc"
       transform="translate(15,-95)" />
    <path
       sodipodi:type="arc"
       style="fill:#eaf7c9;fill-opacity:1;fill-rule:nonzero;stroke:none;stroke-width:0.97799516;marker:none;visibility:visible;display:inline;overflow:visible;enable-background:accumulate"
       id="path3225"
       sodipodi:cx="135"
       sodipodi:cy="150"
       sodipodi:rx="8"
       sodipodi:ry="8"
       d="m 143,150 a 8,8 0 1 1 -16,0 8,8 0 1 1 16,0 z"
       transform="matrix(0.75,0,0,0.75,48.75,-57.5)" />
    <path
       sodipodi:nodetypes="ccccccc"
       id="path3227"
       d="m 145.5,54 2.5,0 1.5,1.5 2,-3.5 2.5,0 -3.5,6 -2,0"
       style="fill:#9cd64a;fill-opacity:1;fill-rule:nonzero;stroke:none;stroke-width:0.97799516;marker:none;visibility:visible;display:inline;overflow:visible;enable-background:accumulate"
       inkscape:connector-curvature="0" />
    <path
       inkscape:connector-curvature="0"
       style="fill:#f3c55d;fill-opacity:1;fill-rule:nonzero;stroke:none;stroke-width:1.62999189;marker:none;visibility:visible;display:inline;overflow:visible;enable-background:accumulate"
       d="M 45.71875,74 C 44.769036,74 44,74.7691 44,75.7188 l 0,8.5624 C 44,85.231 44.769035,86 45.71875,86 l 8.5625,0 C 55.230964,86 56,85.2309 56,84.2812 l 0,-8.5624 C 56,74.769 55.230965,74 54.28125,74 l -8.5625,0 0,0 0,0 0,0 0,0 z M 46,76 c 0,0 3,0 3,0 3,0 5,2 5,5 0,0 0,3 0,3 0,0 -1.5,0 -1.5,0 0,0 0,-2.5 0,-2.5 0,-2.5 -1.5,-4 -4,-4 0,0 -2.5,0 -2.5,0 L 46,76 z m 0,2.5 c 0,0 2,0 2,0 2,0 3.5,1.5 3.5,3.5 0,0 0,2 0,2 L 50,84 c 0,0 0,-2 0,-2 0,-1 -1,-2 -2,-2 0,0 -2,0 -2,0 l 0,-1.5 z M 47.5,81 C 48.328011,81 49,81.672 49,82.5 49,83.328 48.32801,84 47.5,84 46.67199,84 46,83.328 46,82.5 46,81.672 46.67199,81 47.5,81 z"
       id="rect6857" />
    <path
       inkscape:connector-curvature="0"
       style="fill:#bbab98;fill-opacity:1;fill-rule:nonzero;stroke:none;stroke-width:1.62999189;marker:none;visibility:visible;display:inline;overflow:visible;enable-background:accumulate"
       d="m 29,74 c -0.552,0 -1,0.448 -1,1 l 0,2 -1.71875,0 C 25.568964,77 25,77.569 25,78.2812 l 0,6.4376 C 25,85.431 25.568965,86 26.28125,86 l 9.4375,0 C 36.431036,86 37,85.431 37,84.7188 l 0,-6.4376 C 37,77.569 36.431035,77 35.71875,77 L 34,77 34,75 c 0,-0.552 -0.448,-1 -1,-1 l -4,0 z m 0.5,1 0.5,0 2,0 0.5,0 c 0.277,0 0.5,0.223 0.5,0.5 l 0,0.5 0,0.5 0,0.5 -4,0 0,-0.5 0,-0.5 0,-0.5 C 29,75.223 29.223,75 29.5,75 z m -2.5,3 1,7 -1,0 0,-7 z m 8,0 0,7 -1,0 1,-7 z"
       id="rect6859" />
    <path
       inkscape:connector-curvature="0"
       style="fill:#cdd9dc;fill-opacity:1;fill-rule:nonzero;stroke:none;stroke-width:1.62999189;marker:none;visibility:visible;display:inline;overflow:visible;enable-background:accumulate"
       d="m 64,75 0,1 6,4 6,-4 0,-1 -12,0 z m 0,2 0,6.5 3.90625,-3.9062 L 64,77 z M 76,77 72.09375,79.5938 76,83.5 76,77 z M 68.5,80 64,84.5 64,85 76,85 76,84.5 71.5,80 70,81 68.5,80 z"
       id="path6889" />
    <path
       inkscape:connector-curvature="0"
       style="fill:#90add2;fill-opacity:1;fill-rule:nonzero;stroke:none;stroke-width:1.62999189;marker:none;visibility:visible;display:inline;overflow:visible;enable-background:accumulate"
       d="M 85.71875,74 C 84.769036,74 84,74.769 84,75.7188 l 0,8.5624 C 84,85.231 84.769035,86 85.71875,86 l 8.5625,0 C 95.230964,86 96,85.231 96,84.2812 l 0,-8.5624 C 96,74.769 95.230965,74 94.28125,74 l -8.5625,0 0,0 z M 94,75 l 0,2 c 0,0 -2,0 -2,0.5 0,0 0,0.4378 0,0.5 l 2,0 0,2 -2,0 c 0,2.2222 0,5 0,5 l -2,0 c 0,0 0,-2.7539 0,-5 l -1,0 0,-2 1,0 c 0,-0.3555 0,-0.75 0,-1 0,-2 4,-2 4,-2 z"
       id="path12558"
       sodipodi:nodetypes="ccccccccccccccccccccccsc" />
    <path
       inkscape:connector-curvature="0"
       style="fill:#78dafb;fill-opacity:1;fill-rule:nonzero;stroke:none;stroke-width:0;marker:none;visibility:visible;display:inline;overflow:visible;enable-background:accumulate"
       d="m 106.5,75 c -0.831,0 -1.5,0.5853 -1.5,1.3125 l 0,2.1875 0,2.5 c 0,2.208 1.792,4 4,4 l 3.5,0 c 0.831,0 1.5,-0.669 1.5,-1.5 0,-0.831 -0.669,-1.5 -1.5,-1.5 l -2.5,0 c -1.108,0 -2,-0.892 -2,-2 l 4.5,0 c 0.831,0 1.5,-0.669 1.5,-1.5 0,-0.831 -0.669,-1.5 -1.5,-1.5 l -4.5,0 0,-0.6875 C 108,75.5853 107.331,75 106.5,75 z"
       id="rect13336"
       sodipodi:nodetypes="ccccccsccccscccc" />
    <path
       inkscape:connector-curvature="0"
       style="fill:#f4604c;fill-opacity:1;fill-rule:nonzero;stroke:none;stroke-width:0;marker:none;visibility:visible;display:inline;overflow:visible;enable-background:accumulate"
       d="m 123,79 c 0,0 2,0 6,0 4,0 8,0 8,0 0,0 1,0.5 1,3.5 0,3 -1,3.5 -1,3.5 0,0 -3,0 -8,0 -5,0 -6,0 -6,0 0,0 -1,-0.5 -1,-3.5 0,-3 1,-3.5 1,-3.5 z"
       id="path13370"
       sodipodi:nodetypes="cscscscsc" />
    <path
       inkscape:connector-curvature="0"
       style="fill:#808080;fill-opacity:1;fill-rule:nonzero;stroke:none;stroke-width:0;marker:none;visibility:visible;display:inline;overflow:visible;enable-background:accumulate"
       d="m 124,74 1,0 0.5,1 0.5,-1 1,0 -1,2 0,2 -1,0 0,-2 -1,-2 0,0 z"
       id="path14089"
       sodipodi:nodetypes="ccccccccccc" />
    <path
       inkscape:connector-curvature="0"
       style="fill:#808080;fill-opacity:1;fill-rule:nonzero;stroke:none;stroke-width:0;marker:none;visibility:visible;display:inline;overflow:visible;enable-background:accumulate"
       d="m 129.5,74 c -0.831,0 -1.5,0.669 -1.5,1.5 l 0,1 c 0,0.831 0.669,1.5 1.5,1.5 0.831,0 1.5,-0.669 1.5,-1.5 l 0,-1 c 0,-0.831 -0.669,-1.5 -1.5,-1.5 z m 0,1 c 0.276,0 0.5,0.224 0.5,0.5 l 0,1 c 0,0.276 -0.224,0.5 -0.5,0.5 -0.276,0 -0.5,-0.224 -0.5,-0.5 l 0,-1 c 0,-0.276 0.224,-0.5 0.5,-0.5 z"
       id="rect14091" />
    <path
       inkscape:connector-curvature="0"
       style="fill:#808080;fill-opacity:1;fill-rule:nonzero;stroke:none;stroke-width:0;marker:none;visibility:visible;display:inline;overflow:visible;enable-background:accumulate"
       d="m 132,74 0,2.5 c 0,0.831 0.669,1.5 1.5,1.5 0.831,0 1.5,-0.669 1.5,-1.5 l 0,-2.5 -1,0 0,2.5 c 0,0.276 -0.224,0.5 -0.5,0.5 -0.276,0 -0.5,-0.224 -0.5,-0.5 l 0,-2.5 -1,0 z"
       id="rect14093" />
    <path
       inkscape:connector-curvature="0"
       style="fill:#ffffff;fill-opacity:1;fill-rule:nonzero;stroke:none;stroke-width:0;marker:none;visibility:visible;display:inline;overflow:visible;enable-background:accumulate"
       d="m 123,80 0,1 1,0 0,4 1,0 0,-4 1,0 0,-1 -3,0 z"
       id="rect14113" />
    <path
       inkscape:connector-curvature="0"
       id="path14117"
       d="m 126,80 0,3.5 c 0,0.831 0.669,1.5 1.5,1.5 0.831,0 1.5,-0.669 1.5,-1.5 l 0,-3.5 -1,0 0,3.5 c 0,0.276 -0.224,0.5 -0.5,0.5 -0.276,0 -0.5,-0.224 -0.5,-0.5 l 0,-3.5 -1,0 z"
       style="fill:#ffffff;fill-opacity:1;fill-rule:nonzero;stroke:none;stroke-width:0;marker:none;visibility:visible;display:inline;overflow:visible;enable-background:accumulate"
       sodipodi:nodetypes="ccsccccsccc" />
    <path
       inkscape:connector-curvature="0"
       style="fill:#ffffff;fill-opacity:1;fill-rule:nonzero;stroke:none;stroke-width:0;marker:none;visibility:visible;display:inline;overflow:visible;enable-background:accumulate"
       d="m 130,80 0,0.094 0,1.4062 0,2 0,1.4062 0,0.094 0.5,0 0.5,0 0.5,0 c 0.831,0 1.5,-0.669 1.5,-1.5 0,-0.3837 -0.13962,-0.7353 -0.375,-1 0.23538,-0.2647 0.375,-0.6163 0.375,-1 0,-0.831 -0.669,-1.5 -1.5,-1.5 l -0.5,0 -0.5,0 -0.5,0 0,-4e-4 z m 1,1 0.5,0 c 0.276,0 0.5,0.224 0.5,0.5 0,0.276 -0.224,0.5 -0.5,0.5 l -0.5,0 0,-1 z m 0,2 0.5,0 c 0.276,0 0.5,0.224 0.5,0.5 0,0.276 -0.224,0.5 -0.5,0.5 l -0.5,0 0,-1 z"
       id="path14121" />
    <path
       inkscape:connector-curvature="0"
       style="fill:#ffffff;fill-opacity:1;fill-rule:nonzero;stroke:none;stroke-width:0;marker:none;visibility:visible;display:inline;overflow:visible;enable-background:accumulate"
       d="m 134,80 0,5 2.5,0 0,-1 -1.5,0 0,-1 1.5,0 0,-1 -1.5,0 0,-1 1.5,0 0,-1 -2.5,0 z"
       id="rect14134"
       sodipodi:nodetypes="ccccccccccccc" />
    <g
       id="g3980"
       transform="translate(20,-230)">
      <path
         sodipodi:nodetypes="cccccc"
         inkscape:connector-curvature="0"
         id="rect3941"
         d="m 125,303 0,14 10,0 0,-11.5 -2.5,-2.5 z"
         style="color:#000000;fill:#c0c0c0;fill-opacity:1;fill-rule:nonzero;stroke:none;stroke-width:1.62999189;marker:none;visibility:visible;display:inline;overflow:visible;enable-background:accumulate" />
      <path
         id="rect3970"
         d="m 126,304 0,12 8,0 0,-10 -2,-2 -6,0 z"
         style="color:#000000;fill:#ffffff;fill-opacity:1;fill-rule:nonzero;stroke:none;stroke-width:1.62999189;marker:none;visibility:visible;display:inline;overflow:visible;enable-background:accumulate"
         inkscape:connector-curvature="0" />
      <path
         sodipodi:nodetypes="cccccc"
         inkscape:connector-curvature="0"
         id="path3978"
         d="m 131,304 1,0 0,2 2,0 0,1 -3,0"
         style="color:#000000;fill:#c0c0c0;fill-opacity:1;fill-rule:nonzero;stroke:none;stroke-width:1.62999189;marker:none;visibility:visible;display:inline;overflow:visible;enable-background:accumulate" />
      <rect
         rx="2"
         y="306"
         x="123"
         height="8"
         width="14"
         id="rect3873"
         style="color:#000000;fill:#f4604c;fill-opacity:1;fill-rule:nonzero;stroke:none;stroke-width:1.54690075;marker:none;visibility:visible;display:inline;overflow:visible;enable-background:accumulate" />
      <path
         sodipodi:nodetypes="ccccssssccccsscccccccccccccccccccsscc"
         inkscape:connector-curvature="0"
         id="rect3877"
         d="m 125,308 0,4 1,0 0,-1 1,0 c 0.55228,0 1,-0.44772 1,-1 l 0,-1 c 0,-0.55228 -0.44772,-1 -1,-1 z m 4,0 0,4 1.5,0 c 0.55228,0 1.5,-0.94772 1.5,-1.5 l 0,-1 c 0,-0.55228 -0.94772,-1.5 -1.5,-1.5 z m 4,0 0,4 1,0 0,-1 1,0 0,-1 -1,0 0,-1 1,0 0,-1 z m -7,1 1,0 0,1 -1,0 z m 4,0 c 0,0 1,0 1,0.5 l 0,1 c 0,0.5 -1,0.5 -1,0.5 z"
         style="color:#000000;fill:#ffffff;fill-opacity:1;fill-rule:nonzero;stroke:none;stroke-width:1.62999189;marker:none;visibility:visible;display:inline;overflow:visible;enable-background:accumulate" />
    </g>
    <path
       id="rect11106"
       d="m 166,49 0,2 c -1.108,0 -2,0.892 -2,2 l 0,4 c 0,1.02246 0.76204,1.84537 1.75,1.96875 L 165,61 l 10,0 -0.75,-2.03125 C 175.23796,58.84537 176,58.02246 176,57 l 0,-4 c 0,-1.108 -0.892,-2 -2,-2 l 0,-2 -8,0 z m 1,1 6,0 0,1 -6,0 0,-1 z m 6,3 c 0.552,0 1,0.448 1,1 0,0.552 -0.448,1 -1,1 -0.552,0 -1,-0.448 -1,-1 0,-0.552 0.448,-1 1,-1 z m -5.5,4 5,0 1,3 -7,0 1,-3 z"
       style="fill:#a0a0a0;fill-opacity:1;fill-rule:nonzero;stroke:none;stroke-width:2;marker:none;visibility:visible;display:inline;overflow:visible;enable-background:new"
       inkscape:connector-curvature="0" />
    <path
       id="rect11129"
       d="m 187,49 c -1.662,0 -3,1.338 -3,3 l 0,6 c 0,1.662 1.338,3 3,3 l 6,0 c 1.662,0 3,-1.338 3,-3 l 0,-6 c 0,-1.662 -1.338,-3 -3,-3 l -6,0 z m 2.5,3 1,0 c 0.277,0 0.5,0.223 0.5,0.5 l 0,1.5 1.5,0 c 0.277,0 0.5,0.223 0.5,0.5 l 0,1 c 0,0.277 -0.223,0.5 -0.5,0.5 l -1.5,0 0,1.5 c 0,0.277 -0.223,0.5 -0.5,0.5 l -1,0 c -0.277,0 -0.5,-0.223 -0.5,-0.5 l 0,-1.5 -1.5,0 c -0.277,0 -0.5,-0.223 -0.5,-0.5 l 0,-1 c 0,-0.277 0.223,-0.5 0.5,-0.5 l 1.5,0 0,-1.5 c 0,-0.277 0.223,-0.5 0.5,-0.5 z"
       style="fill:#a0a0a0;fill-opacity:1;fill-rule:nonzero;stroke:none;stroke-width:2;marker:none;visibility:visible;display:inline;overflow:visible;enable-background:new"
       inkscape:connector-curvature="0" />
    <path
       transform="translate(75,-95)"
       sodipodi:type="arc"
       style="fill:#ffbe21;fill-opacity:1;fill-rule:nonzero;stroke:none;stroke-width:0.97799516;marker:none;visibility:visible;display:inline;overflow:visible;enable-background:accumulate"
       id="path3138"
       sodipodi:cx="135"
       sodipodi:cy="150"
       sodipodi:rx="8"
       sodipodi:ry="8"
       d="m 143,150 a 8,8 0 1 1 -16,0 8,8 0 1 1 16,0 z" />
    <path
       transform="matrix(0.75,0,0,0.75,108.75,-57.5)"
       d="m 143,150 a 8,8 0 1 1 -16,0 8,8 0 1 1 16,0 z"
       sodipodi:ry="8"
       sodipodi:rx="8"
       sodipodi:cy="150"
       sodipodi:cx="135"
       id="path3140"
       style="fill:#ffe3a1;fill-opacity:1;fill-rule:nonzero;stroke:none;stroke-width:0.97799516;marker:none;visibility:visible;display:inline;overflow:visible;enable-background:accumulate"
       sodipodi:type="arc" />
    <path
       d="m 143,150 a 8,8 0 1 1 -16,0 8,8 0 1 1 16,0 z"
       sodipodi:ry="8"
       sodipodi:rx="8"
       sodipodi:cy="150"
       sodipodi:cx="135"
       id="path3142"
       style="fill:#ee5555;fill-opacity:1;fill-rule:nonzero;stroke:none;stroke-width:0.97799516;marker:none;visibility:visible;display:inline;overflow:visible;enable-background:accumulate"
       sodipodi:type="arc"
       transform="translate(95,-95)" />
    <path
       sodipodi:type="arc"
       style="fill:#ffaca1;fill-opacity:1;fill-rule:nonzero;stroke:none;stroke-width:0.97799516;marker:none;visibility:visible;display:inline;overflow:visible;enable-background:accumulate"
       id="path3144"
       sodipodi:cx="135"
       sodipodi:cy="150"
       sodipodi:rx="8"
       sodipodi:ry="8"
       d="m 143,150 a 8,8 0 1 1 -16,0 8,8 0 1 1 16,0 z"
       transform="matrix(0.75,0,0,0.75,128.75,-57.5)" />
    <path
       style="color:#000000;fill:#ffbe21;fill-opacity:1;fill-rule:nonzero;stroke:none;stroke-width:1.62999189;marker:none;visibility:visible;display:inline;overflow:visible;enable-background:accumulate"
       d="m 210,56 c -1,0 -1,-0.83333 -1,-0.83333 l -0.5,-3.33334 c 0,0 0.5,-0.83333 1.5,-0.83333 1,0 1.5,0.83333 1.5,0.83333 l -0.5,3.33334 c 0,0 0,0.83333 -1,0.83333 z"
       id="path3914"
       inkscape:connector-curvature="0"
       sodipodi:nodetypes="sccsccs" />
    <path
       sodipodi:type="arc"
       style="color:#000000;fill:#ffbe21;fill-opacity:1;fill-rule:nonzero;stroke:none;stroke-width:1.62999189;marker:none;visibility:visible;display:inline;overflow:visible;enable-background:accumulate"
       id="path3916"
       sodipodi:cx="210"
       sodipodi:cy="153"
       sodipodi:rx="1"
       sodipodi:ry="1"
       d="m 211,153 a 1,1 0 1 1 -2,0 1,1 0 1 1 2,0 z"
       transform="matrix(1.5,0,0,1,-105,-95)" />
    <path
       sodipodi:nodetypes="cccc"
       inkscape:connector-curvature="0"
       id="path3922"
       d="M 233.5,53 232,51.5 226.5,57 228,58.5"
       style="color:#000000;fill:#ee5555;fill-opacity:1;fill-rule:nonzero;stroke:none;stroke-width:1.62999189;marker:none;visibility:visible;display:inline;overflow:visible;enable-background:accumulate" />
    <path
       style="color:#000000;fill:#ee5555;fill-opacity:1;fill-rule:nonzero;stroke:none;stroke-width:1.62999189;marker:none;visibility:visible;display:inline;overflow:visible;enable-background:accumulate"
       d="m 226.5,53 1.5,-1.5 5.5,5.5 -1.5,1.5"
       id="path3924"
       inkscape:connector-curvature="0"
       sodipodi:nodetypes="cccc" />
    <path
       style="color:#000000;fill:#c0c0c0;fill-opacity:1;fill-rule:nonzero;stroke:none;stroke-width:1.62999189;marker:none;visibility:visible;display:inline;overflow:visible;enable-background:accumulate"
       d="m 166,75 c -0.554,0 -1,0.446 -1,1 l 0,8 c 0,0.554 0.446,1 1,1 l 8,0 c 0.554,0 1,-0.446 1,-1 l 0,-3 -1,-1 -1,1 0,2 -2,0 -4,0 0,-4 0,-2 2,0 1,-1 -1,-1 -3,0 z"
       id="rect3125"
       inkscape:connector-curvature="0" />
    <path
       style="color:#000000;fill:#6db5f9;fill-opacity:1;fill-rule:nonzero;stroke:none;stroke-width:1.62999189;marker:none;visibility:visible;display:inline;overflow:visible;enable-background:accumulate"
       d="m 170,74 2,2 -4,4 2,2 4,-4 2,2 0,-4 0,-2 -2,0 -4,0 z"
       id="path3898"
       inkscape:connector-curvature="0" />
    <path
       style="fill:#ffffff;fill-opacity:1;fill-rule:nonzero;stroke:none;stroke-width:1.62999189;marker:none;visibility:visible;display:inline;overflow:visible;enable-background:accumulate"
       d="m 7.49999,76.5 -1,1 2.5,2.5 -2.5,2.5 1,1 2.5,-2.5 2.5,2.5 1,-1 -2.5,-2.5 2.5,-2.5 -1,-1 -2.5,2.5 -2.5,-2.5 z"
       id="path7575"
       inkscape:connector-curvature="0" />
    <path
       sodipodi:nodetypes="cccccccc"
       inkscape:connector-curvature="0"
       id="path37333"
       d="m 60,350.49301 -9.917832,8.82251 -49.58916067,0 0,40.19147 119.01398267,0 0,-40.19147 -49.589158,0 z"
       style="color:#000000;fill:#1188bb;fill-opacity:1;fill-rule:nonzero;stroke:#000000;stroke-width:0.98601466000000004;stroke-miterlimit:4;stroke-opacity:1;stroke-dasharray:none;marker:none;visibility:visible;display:inline;overflow:visible;enable-background:accumulate;opacity:1" />
  </g>
</svg>
