<?xml version="1.0" encoding="UTF-8" standalone="no"?>
<!-- Created with Inkscape (http://www.inkscape.org/) -->

<svg
   xmlns:osb="http://www.openswatchbook.org/uri/2009/osb"
   xmlns:dc="http://purl.org/dc/elements/1.1/"
   xmlns:cc="http://creativecommons.org/ns#"
   xmlns:rdf="http://www.w3.org/1999/02/22-rdf-syntax-ns#"
   xmlns:svg="http://www.w3.org/2000/svg"
   xmlns="http://www.w3.org/2000/svg"
   xmlns:xlink="http://www.w3.org/1999/xlink"
   xmlns:sodipodi="http://sodipodi.sourceforge.net/DTD/sodipodi-0.dtd"
   xmlns:inkscape="http://www.inkscape.org/namespaces/inkscape"
   width="240"
   height="240"
   id="svg9089"
   sodipodi:version="0.32"
   inkscape:version="0.48.2 r9819"
   version="1.0"
   sodipodi:docname="sprite.svg"
   inkscape:output_extension="org.inkscape.output.svg.inkscape"
   inkscape:export-filename="/Users/tristen/devseed/rw-drc/images/sprite.png"
   inkscape:export-xdpi="90"
   inkscape:export-ydpi="90">
  <defs
     id="defs9091">
    <linearGradient
       id="linearGradient6105">
      <stop
         style="stop-color:#d1d1cb;stop-opacity:0.94117647;"
         offset="0"
         id="stop6107" />
      <stop
         style="stop-color:#d1d1cb;stop-opacity:0;"
         offset="1"
         id="stop6109" />
    </linearGradient>
    <linearGradient
       inkscape:collect="always"
       id="linearGradient3815">
      <stop
         style="stop-color:#f4f4f0;stop-opacity:1;"
         offset="0"
         id="stop3817" />
      <stop
         style="stop-color:#f4f4f0;stop-opacity:0;"
         offset="1"
         id="stop3819" />
    </linearGradient>
    <linearGradient
       inkscape:collect="always"
       id="linearGradient3801">
      <stop
         style="stop-color:#000000;stop-opacity:1;"
         offset="0"
         id="stop3803" />
      <stop
         style="stop-color:#000000;stop-opacity:0;"
         offset="1"
         id="stop3805" />
    </linearGradient>
    <linearGradient
       inkscape:collect="always"
       xlink:href="#linearGradient3339"
       id="linearGradient10962"
       gradientUnits="userSpaceOnUse"
       gradientTransform="matrix(-1,0,0,-1,420,520)"
       x1="31"
       y1="133"
       x2="31"
       y2="137" />
    <linearGradient
       inkscape:collect="always"
       id="linearGradient7429">
      <stop
         style="stop-color:#505050;stop-opacity:1;"
         offset="0"
         id="stop7431" />
      <stop
         style="stop-color:#6c6c6c;stop-opacity:1"
         offset="1"
         id="stop7433" />
    </linearGradient>
    <linearGradient
       inkscape:collect="always"
       xlink:href="#linearGradient7429"
       id="linearGradient7583"
       gradientUnits="userSpaceOnUse"
       gradientTransform="translate(-590.00001,-120)"
       x1="970.5"
       y1="240"
       x2="970.5"
       y2="220" />
    <linearGradient
       id="linearGradient5066-0">
      <stop
         id="stop5068-7"
         offset="0"
         style="stop-color:#3b9df9;stop-opacity:1;" />
      <stop
         style="stop-color:#b9a7e4;stop-opacity:1;"
         offset="0.41017279"
         id="stop5887" />
      <stop
         id="stop6014"
         offset="0.57410067"
         style="stop-color:#f284bb;stop-opacity:1;" />
      <stop
         style="stop-color:#f15050;stop-opacity:1;"
         offset="1"
         id="stop5070-3" />
    </linearGradient>
    <linearGradient
       inkscape:collect="always"
       xlink:href="#linearGradient5066-0"
       id="linearGradient6025"
       gradientUnits="userSpaceOnUse"
       x1="1732.6053"
       y1="549.81177"
       x2="1634"
       y2="576.36218" />
    <linearGradient
       inkscape:collect="always"
       id="linearGradient3339">
      <stop
         style="stop-color:#606060;stop-opacity:1"
         offset="0"
         id="stop3341" />
      <stop
         style="stop-color:#808080;stop-opacity:1"
         offset="1"
         id="stop3343" />
    </linearGradient>
    <linearGradient
       inkscape:collect="always"
       xlink:href="#linearGradient3339"
       id="linearGradient5380"
       gradientUnits="userSpaceOnUse"
       gradientTransform="matrix(-1,0,0,-1,415,280)"
       x1="10"
       y1="150"
       x2="10"
       y2="190" />
    <linearGradient
       inkscape:collect="always"
       xlink:href="#linearGradient6974"
       id="linearGradient11383"
       x1="50"
       y1="1030"
       x2="70"
       y2="1050"
       gradientUnits="userSpaceOnUse"
       gradientTransform="translate(330,-970)" />
    <linearGradient
       inkscape:collect="always"
       id="linearGradient6974">
      <stop
         style="stop-color:#fefefd;stop-opacity:1"
         offset="0"
         id="stop6976" />
      <stop
         style="stop-color:#f4f4f0;stop-opacity:1"
         offset="1"
         id="stop6978" />
    </linearGradient>
    <linearGradient
       inkscape:collect="always"
       xlink:href="#linearGradient6974"
       id="linearGradient2853"
       gradientUnits="userSpaceOnUse"
       gradientTransform="matrix(2,0,0,1,-39.999996,-19.999999)"
       x1="20"
       y1="20"
       x2="220"
       y2="20" />
    <inkscape:perspective
       sodipodi:type="inkscape:persp3d"
       inkscape:vp_x="0 : 526.18109 : 1"
       inkscape:vp_y="0 : 1000 : 0"
       inkscape:vp_z="744.09448 : 526.18109 : 1"
       inkscape:persp3d-origin="372.04724 : 350.78739 : 1"
       id="perspective9097" />
    <linearGradient
       inkscape:collect="always"
       xlink:href="#linearGradient5066-0"
       id="linearGradient2669"
       gradientUnits="userSpaceOnUse"
       x1="1732.6053"
       y1="549.81177"
       x2="1634"
       y2="576.36218" />
    <linearGradient
       inkscape:collect="always"
       xlink:href="#linearGradient5066-0"
       id="linearGradient3688"
       gradientUnits="userSpaceOnUse"
       x1="1732.6053"
       y1="549.81177"
       x2="1634"
       y2="576.36218" />
    <linearGradient
       inkscape:collect="always"
       xlink:href="#linearGradient5066-0"
       id="linearGradient3696"
       gradientUnits="userSpaceOnUse"
       x1="1732.6053"
       y1="549.81177"
       x2="1634"
       y2="576.36218" />
    <linearGradient
       inkscape:collect="always"
       xlink:href="#linearGradient5066-0"
       id="linearGradient3702"
       gradientUnits="userSpaceOnUse"
       x1="1732.6053"
       y1="549.81177"
       x2="1634"
       y2="576.36218" />
    <linearGradient
       inkscape:collect="always"
       xlink:href="#linearGradient5066-0"
       id="linearGradient3705"
       gradientUnits="userSpaceOnUse"
       x1="1732.6053"
       y1="549.81177"
       x2="1634"
       y2="576.36218"
       gradientTransform="matrix(0.5281928,0,0,0.5281928,-798.41743,-270.62104)" />
    <linearGradient
       inkscape:collect="always"
       xlink:href="#linearGradient5066-0"
       id="linearGradient3711"
       gradientUnits="userSpaceOnUse"
       gradientTransform="matrix(0.5281928,0,0,0.5281928,-788.10289,-265.46377)"
       x1="1732.6053"
       y1="549.81177"
       x2="1634"
       y2="576.36218" />
    <linearGradient
       inkscape:collect="always"
       xlink:href="#linearGradient3339"
       id="linearGradient8439"
       gradientUnits="userSpaceOnUse"
       gradientTransform="matrix(-1,0,0,1,420,220)"
       x1="31"
       y1="133"
       x2="31"
       y2="137" />
    <linearGradient
       inkscape:collect="always"
       xlink:href="#linearGradient5066-0"
       id="linearGradient2472"
       gradientUnits="userSpaceOnUse"
       gradientTransform="matrix(0.5281928,0,0,0.5281928,-798.41743,-270.62104)"
       x1="1540.001"
       y1="483.95404"
       x2="1511.6023"
       y2="512.35278" />
    <linearGradient
       inkscape:collect="always"
       xlink:href="#linearGradient3801"
       id="linearGradient3809"
       x1="42"
       y1="45"
       x2="42"
       y2="90"
       gradientUnits="userSpaceOnUse"
       gradientTransform="translate(0,160)" />
    <linearGradient
       inkscape:collect="always"
       xlink:href="#linearGradient3815"
       id="linearGradient3824"
       gradientUnits="userSpaceOnUse"
       x1="120"
       y1="370"
       x2="120"
       y2="415"
       gradientTransform="translate(0,-200)" />
    <linearGradient
       inkscape:collect="always"
       xlink:href="#linearGradient3815"
       id="linearGradient3829"
       gradientUnits="userSpaceOnUse"
       x1="120"
       y1="370"
       x2="120"
       y2="415"
       gradientTransform="translate(0,-40)" />
    <radialGradient
       gradientUnits="userSpaceOnUse"
       gradientTransform="matrix(0.67226623,-0.12244333,0.12094453,0.66403716,-122.88974,351.45878)"
       r="9.7634001"
       fy="1042.4249"
       fx="9.7475567"
       cy="1042.4249"
       cx="9.7475567"
       id="radialGradient5365"
       xlink:href="#linearGradient5493"
       inkscape:collect="always" />
    <radialGradient
       gradientUnits="userSpaceOnUse"
       gradientTransform="matrix(0.99999988,0,0,1.0519212,5.2988715e-7,-54.033012)"
       r="1.032777"
       fy="1040.6729"
       fx="4.5907097"
       cy="1040.6729"
       cx="4.5907097"
       id="radialGradient5298"
       xlink:href="#linearGradient5322"
       inkscape:collect="always" />
    <linearGradient
       id="linearGradient5322">
      <stop
         style="stop-color:#ffffff;stop-opacity:1;"
         offset="0"
         id="stop5324" />
      <stop
         id="stop5300"
         offset="0.29549524"
         style="stop-color:#f6fafa;stop-opacity:0.49803922;" />
      <stop
         style="stop-color:#edf6f5;stop-opacity:0;"
         offset="1"
         id="stop5326" />
    </linearGradient>
    <linearGradient
       osb:paint="solid"
       id="linearGradient5515">
      <stop
         id="stop5517"
         offset="0"
         style="stop-color:#ffffff;stop-opacity:1;" />
    </linearGradient>
    <linearGradient
       id="linearGradient5321">
      <stop
         id="stop5323"
         offset="0"
         style="stop-color:#ffffff;stop-opacity:1;" />
      <stop
         style="stop-color:#ffffff;stop-opacity:1;"
         offset="0.25"
         id="stop5331" />
      <stop
         style="stop-color:#d0221a;stop-opacity:0.65546221;"
         offset="0.5"
         id="stop5329" />
      <stop
         id="stop5325"
         offset="1"
         style="stop-color:#ba2929;stop-opacity:1;" />
    </linearGradient>
    <linearGradient
       id="linearGradient5335">
      <stop
         style="stop-color:#ffffff;stop-opacity:1;"
         offset="0"
         id="stop5337" />
      <stop
         id="stop5339"
         offset="0.31818181"
         style="stop-color:#d4360f;stop-opacity:0.8067227;" />
      <stop
         style="stop-color:#ba2929;stop-opacity:1;"
         offset="1"
         id="stop5343" />
    </linearGradient>
    <linearGradient
       id="linearGradient5347">
      <stop
         id="stop5349"
         offset="0"
         style="stop-color:#ffffff;stop-opacity:0.66386557;" />
      <stop
         style="stop-color:#000000;stop-opacity:0.44537815;"
         offset="0.29504016"
         id="stop5351" />
      <stop
         id="stop5355"
         offset="0.54808402"
         style="stop-color:#000000;stop-opacity:0.64705884;" />
      <stop
         id="stop5353"
         offset="1"
         style="stop-color:#000000;stop-opacity:1;" />
    </linearGradient>
    <linearGradient
       id="linearGradient5407">
      <stop
         style="stop-color:#ffffff;stop-opacity:0.66386557;"
         offset="0"
         id="stop5409" />
      <stop
         id="stop5411"
         offset="0.4096933"
         style="stop-color:#ee382f;stop-opacity:0.65546221;" />
      <stop
         style="stop-color:#d4302c;stop-opacity:0.82745098;"
         offset="0.71624196"
         id="stop5413" />
      <stop
         style="stop-color:#ba2929;stop-opacity:1;"
         offset="1"
         id="stop5415" />
    </linearGradient>
    <linearGradient
       id="linearGradient5493">
      <stop
         style="stop-color:#ffffff;stop-opacity:0.66386557;"
         offset="0"
         id="stop5495" />
      <stop
         id="stop5497"
         offset="0.39465603"
         style="stop-color:#ffa11c;stop-opacity:1;" />
      <stop
         style="stop-color:#ff8d00;stop-opacity:1;"
         offset="0.60180545"
         id="stop5499" />
      <stop
         style="stop-color:#dd6d00;stop-opacity:1;"
         offset="1"
         id="stop5501" />
    </linearGradient>
    <radialGradient
       gradientUnits="userSpaceOnUse"
       gradientTransform="matrix(0.67826829,-0.08298421,0.07890539,0.64493018,-79.125593,370.99174)"
       r="9.7634001"
       fy="1042.4249"
       fx="9.7475567"
       cy="1042.4249"
       cx="9.7475567"
       id="radialGradient5365-6"
       xlink:href="#linearGradient5407-4"
       inkscape:collect="always" />
    <radialGradient
       gradientUnits="userSpaceOnUse"
       gradientTransform="matrix(0.99999988,0,0,1.0519212,5.2988715e-7,-54.033012)"
       r="1.032777"
       fy="1040.6729"
       fx="4.5907097"
       cy="1040.6729"
       cx="4.5907097"
       id="radialGradient5298-1"
       xlink:href="#linearGradient5322-0"
       inkscape:collect="always" />
    <linearGradient
       id="linearGradient5322-0">
      <stop
         style="stop-color:#ffffff;stop-opacity:1;"
         offset="0"
         id="stop5324-2" />
      <stop
         id="stop5300-7"
         offset="0.29549524"
         style="stop-color:#f6fafa;stop-opacity:0.49803922;" />
      <stop
         style="stop-color:#edf6f5;stop-opacity:0;"
         offset="1"
         id="stop5326-9" />
    </linearGradient>
    <linearGradient
       osb:paint="solid"
       id="linearGradient5515-8">
      <stop
         id="stop5517-6"
         offset="0"
         style="stop-color:#ffffff;stop-opacity:1;" />
    </linearGradient>
    <linearGradient
       id="linearGradient5321-0">
      <stop
         id="stop5323-3"
         offset="0"
         style="stop-color:#ffffff;stop-opacity:1;" />
      <stop
         style="stop-color:#ffffff;stop-opacity:1;"
         offset="0.25"
         id="stop5331-0" />
      <stop
         style="stop-color:#d0221a;stop-opacity:0.65546221;"
         offset="0.5"
         id="stop5329-3" />
      <stop
         id="stop5325-6"
         offset="1"
         style="stop-color:#ba2929;stop-opacity:1;" />
    </linearGradient>
    <linearGradient
       id="linearGradient5335-8">
      <stop
         style="stop-color:#ffffff;stop-opacity:1;"
         offset="0"
         id="stop5337-7" />
      <stop
         id="stop5339-3"
         offset="0.31818181"
         style="stop-color:#d4360f;stop-opacity:0.8067227;" />
      <stop
         style="stop-color:#ba2929;stop-opacity:1;"
         offset="1"
         id="stop5343-7" />
    </linearGradient>
    <linearGradient
       id="linearGradient5347-9">
      <stop
         id="stop5349-9"
         offset="0"
         style="stop-color:#ffffff;stop-opacity:0.66386557;" />
      <stop
         style="stop-color:#000000;stop-opacity:0.44537815;"
         offset="0.29504016"
         id="stop5351-4" />
      <stop
         id="stop5355-7"
         offset="0.54808402"
         style="stop-color:#000000;stop-opacity:0.64705884;" />
      <stop
         id="stop5353-5"
         offset="1"
         style="stop-color:#000000;stop-opacity:1;" />
    </linearGradient>
    <linearGradient
       id="linearGradient5407-4">
      <stop
         style="stop-color:#ffffff;stop-opacity:0.66386557;"
         offset="0"
         id="stop5409-4" />
      <stop
         id="stop5411-7"
         offset="0.371512"
         style="stop-color:#ec4027;stop-opacity:0.65546221;" />
      <stop
         style="stop-color:#d4302c;stop-opacity:0.82745099;"
         offset="0.71624196"
         id="stop5413-2" />
      <stop
         style="stop-color:#c32929;stop-opacity:1;"
         offset="1"
         id="stop5415-4" />
    </linearGradient>
    <linearGradient
       id="linearGradient5493-1">
      <stop
         style="stop-color:#ffffff;stop-opacity:0.66386557;"
         offset="0"
         id="stop5495-5" />
      <stop
         id="stop5497-8"
         offset="0.39465603"
         style="stop-color:#ffa11c;stop-opacity:1;" />
      <stop
         style="stop-color:#ff8d00;stop-opacity:1;"
         offset="0.60180545"
         id="stop5499-7" />
      <stop
         style="stop-color:#dd6d00;stop-opacity:1;"
         offset="1"
         id="stop5501-3" />
    </linearGradient>
    <linearGradient
       inkscape:collect="always"
       xlink:href="#linearGradient3339-2"
       id="linearGradient5380-6"
       gradientUnits="userSpaceOnUse"
       gradientTransform="matrix(-1,0,0,-1,415,280)"
       x1="10"
       y1="150"
       x2="10"
       y2="190" />
    <linearGradient
       inkscape:collect="always"
       id="linearGradient3339-2">
      <stop
         style="stop-color:#606060;stop-opacity:1"
         offset="0"
         id="stop3341-7" />
      <stop
         style="stop-color:#808080;stop-opacity:1"
         offset="1"
         id="stop3343-2" />
    </linearGradient>
    <linearGradient
       y2="190"
       x2="10"
       y1="150"
       x1="10"
       gradientTransform="matrix(-1,0,0,-1,415,440)"
       gradientUnits="userSpaceOnUse"
       id="linearGradient5523"
       xlink:href="#linearGradient3339-2"
       inkscape:collect="always" />
    <linearGradient
       inkscape:collect="always"
       xlink:href="#linearGradient3339-0"
       id="linearGradient5380-4"
       gradientUnits="userSpaceOnUse"
       gradientTransform="matrix(-1,0,0,-1,415,280)"
       x1="10"
       y1="150"
       x2="10"
       y2="190" />
    <linearGradient
       inkscape:collect="always"
       id="linearGradient3339-0">
      <stop
         style="stop-color:#606060;stop-opacity:1"
         offset="0"
         id="stop3341-6" />
      <stop
         style="stop-color:#808080;stop-opacity:1"
         offset="1"
         id="stop3343-9" />
    </linearGradient>
    <linearGradient
       y2="190"
       x2="10"
       y1="150"
       x1="10"
       gradientTransform="matrix(-1,0,0,-1,635,665)"
       gradientUnits="userSpaceOnUse"
       id="linearGradient5523-4"
       xlink:href="#linearGradient3339-0"
       inkscape:collect="always" />
    <radialGradient
       inkscape:collect="always"
       xlink:href="#linearGradient5493"
       id="radialGradient6076"
       gradientUnits="userSpaceOnUse"
       gradientTransform="matrix(0.67226623,-0.12244333,0.12094453,0.66403716,91.58193,-426.11627)"
       cx="9.7475567"
       cy="1042.4249"
       fx="9.7475567"
       fy="1042.4249"
       r="9.7634001" />
    <linearGradient
       inkscape:collect="always"
       xlink:href="#linearGradient6105"
       id="linearGradient6111"
       x1="0"
       y1="385"
       x2="100"
       y2="385"
       gradientUnits="userSpaceOnUse" />
    <linearGradient
       inkscape:collect="always"
       xlink:href="#linearGradient5066-0"
       id="linearGradient8764"
       gradientUnits="userSpaceOnUse"
       gradientTransform="matrix(0.51208567,0,0,0.51208567,-768.35566,-100.80127)"
       x1="1732.6053"
       y1="549.81177"
       x2="1634"
       y2="576.36218" />
    <linearGradient
       inkscape:collect="always"
       xlink:href="#linearGradient3815-2"
       id="linearGradient3829-6"
       gradientUnits="userSpaceOnUse"
       x1="120"
       y1="370"
       x2="120"
       y2="415"
       gradientTransform="translate(0,-40)" />
    <linearGradient
       inkscape:collect="always"
       id="linearGradient3815-2">
      <stop
         style="stop-color:#f4f4f0;stop-opacity:1;"
         offset="0"
         id="stop3817-4" />
      <stop
         style="stop-color:#f4f4f0;stop-opacity:0;"
         offset="1"
         id="stop3819-4" />
    </linearGradient>
    <linearGradient
       y2="415"
       x2="120"
       y1="370"
       x1="120"
       gradientTransform="translate(4.3970219e-8,-39.999997)"
       gradientUnits="userSpaceOnUse"
       id="linearGradient8783"
       xlink:href="#linearGradient3815-2"
       inkscape:collect="always" />
  </defs>
  <sodipodi:namedview
     id="base"
     pagecolor="#ffffff"
     bordercolor="#666666"
     borderopacity="1.0"
     gridtolerance="10000"
     guidetolerance="10"
     objecttolerance="10"
     inkscape:pageopacity="0.0"
     inkscape:pageshadow="2"
     inkscape:zoom="4.7719787"
     inkscape:cx="44.288181"
     inkscape:cy="202.09434"
     inkscape:document-units="px"
     inkscape:current-layer="layer1"
     showgrid="true"
     showguides="true"
     inkscape:guide-bbox="true"
     inkscape:snap-bbox="true"
     inkscape:snap-nodes="true"
     inkscape:bbox-nodes="true"
     inkscape:bbox-paths="true"
     inkscape:window-width="1280"
     inkscape:window-height="752"
     inkscape:window-x="-1"
     inkscape:window-y="0"
     inkscape:window-maximized="0"
     inkscape:snap-global="true">
    <inkscape:grid
       type="xygrid"
       id="grid9104"
       visible="true"
       enabled="true"
       empspacing="5"
       snapvisiblegridlinesonly="true" />
  </sodipodi:namedview>
  <metadata
     id="metadata9094">
    <rdf:RDF>
      <cc:Work
         rdf:about="">
        <dc:format>image/svg+xml</dc:format>
        <dc:type
           rdf:resource="http://purl.org/dc/dcmitype/StillImage" />
        <dc:title></dc:title>
      </cc:Work>
    </rdf:RDF>
  </metadata>
  <g
     inkscape:groupmode="layer"
     id="layer3"
     inkscape:label="underlay"
     style="display:none"
     transform="translate(0,-160)">
    <rect
       style="color:#000000;fill:#e6e6e6;fill-opacity:1;fill-rule:nonzero;stroke:none;stroke-width:0.20100001;marker:none;visibility:visible;display:inline;overflow:visible;enable-background:accumulate"
       id="rect37331"
       width="240"
       height="240"
       x="0"
       y="160" />
  </g>
  <g
     inkscape:label="sprite"
     inkscape:groupmode="layer"
     id="layer1"
     style="display:inline"
     transform="translate(0,-160)">
    <path
       inkscape:connector-curvature="0"
       id="path4933-0-6"
       d="m 102.35968,168.98474 c 2.35201,0.98069 3.84925,2.36222 4.16321,4.06451 0.93496,5.06961 -8.990278,11.13434 -22.182016,13.55935 -13.19184,2.425 -24.653443,0.28106 -25.588306,-4.78856 -0.259679,-1.40809 0.324662,-2.8984 1.579733,-4.36071 l -0.806381,-1.61264 c -3.756251,2.59096 -5.794762,5.43707 -5.315092,8.04675 1.063909,5.7883 14.097616,8.23202 29.109766,5.46323 15.012199,-2.76879 26.306716,-9.69634 25.242806,-15.48464 -0.12679,-0.68994 -0.42227,-1.33387 -0.87214,-1.9253 -0.0854,-0.11226 -0.18348,-0.22054 -0.27975,-0.32911 -0.005,-0.005 -0.0118,-0.011 -0.0164,-0.0164 -0.10386,-0.11148 -0.2116,-0.23278 -0.32912,-0.34557 -0.24658,-0.23658 -0.52407,-0.46227 -0.83926,-0.69113 -0.10155,-0.0737 -0.20319,-0.1587 -0.31263,-0.23038 -0.0573,-0.0377 -0.12213,-0.0781 -0.18103,-0.11519 -0.0404,-0.025 -0.09,-0.0411 -0.13165,-0.0658 -0.84121,-0.49846 -1.89508,-0.93427 -3.24171,-1.16834 l -5e-5,-2e-5 z"
       style="fill:url(#linearGradient8764);fill-opacity:1;fill-rule:nonzero;stroke:none;stroke-width:0.57473511px;marker:none;visibility:visible;display:inline;overflow:visible;enable-background:accumulate"
       sodipodi:nodetypes="csscccssccccccccccc" />
    <path
       inkscape:connector-curvature="0"
       style="font-size:24px;font-style:normal;font-variant:normal;font-weight:normal;font-stretch:normal;text-indent:0;text-align:start;text-decoration:none;line-height:100%;letter-spacing:normal;word-spacing:normal;text-transform:none;direction:ltr;block-progression:tb;writing-mode:lr-tb;text-anchor:start;fill:#333333;fill-opacity:1;fill-rule:nonzero;stroke:none;stroke-width:1.62999189000000011;marker:none;visibility:visible;display:inline;overflow:visible;enable-background:accumulate;font-family:Futura Lt BT;-inkscape-font-specification:Futura Lt BT"
       d="m 54.709635,161.8223 c -2.310991,0 -3.968664,1.35684 -3.968664,3.72862 l 0,16.57877 2.848476,0 0,-11.90599 6.113023,0 3.712622,11.90599 2.528423,0 L 69,172 l 3.088542,10.12969 2.528423,0 4.512755,-14.48242 -3.088542,0 -2.68845,10.04968 -3.248518,-10.04968 -2.176364,0 -3.16853,10.04968 -2.816471,-10.04968 -8.353398,0 c -5.1e-5,-0.51692 0,-0.98732 0,-1.50425 -5.1e-5,-1.2467 0.305511,-1.55226 1.552234,-1.55226 0,0 2.656444,0 2.656444,0 l 0,-2.76846 -3.08849,0 z m -29.316905,0.016 0,20.2914 2.912488,0 0,-20.2914 -2.912488,0 z m 6.241045,0 0,2.92849 2.912487,0 0,-2.92849 -2.912487,0 z m 61.210213,0 0,20.2914 2.928521,0 0,-1.64828 c 0.912227,1.15548 2.302643,1.82431 3.792607,1.82431 3.162374,0 4.864804,-2.33297 4.864804,-5.31289 l 0,-4.44874 c 0,-2.73667 -2.06734,-5.07285 -4.864804,-5.07285 -1.520387,0 -2.789179,0.66722 -3.792607,1.7923 l 0,-7.42525 -2.928521,0 z m -83.6619955,5.63292 c -1.5203819,0 -2.7875891,0.66722 -3.7606031,1.7923 l 0,-1.61627 -2.9285155,0 0,14.48242 2.9285155,0 0,-8.75347 c 0,-1.70282 1.2112362,-3.0245 2.944493,-3.0245 0.8209751,0 1.2817499,0.2496 1.9203216,0.73612 l 2.000308,-2.52842 c -0.881811,-0.72977 -1.979415,-1.08818 -3.1045195,-1.08818 z m 8.4814195,0 c -3.253588,0 -5.985002,2.62098 -5.985002,5.90498 l 0,2.54443 c 0,3.7097 2.548958,6.38507 6.289079,6.38507 2.006863,0 3.957346,-0.81602 5.264854,-2.33639 l -2.160336,-1.92032 c -0.821026,0.88181 -1.824254,1.37623 -3.040508,1.37623 -2.128536,0 -3.472606,-1.31206 -3.472606,-3.44058 l 9.025509,0 0,-2.22437 c 0,-3.46644 -2.332908,-6.28905 -5.92099,-6.28905 z m 24.820178,0 c -3.253639,0 -5.985001,2.62098 -5.985001,5.90498 l 0,2.54443 c -5.2e-5,3.7097 2.548905,6.38507 6.289026,6.38507 2.006864,0 3.957347,-0.81602 5.264907,-2.33639 l -2.160388,-1.92032 c -0.821027,0.88181 -1.824202,1.37623 -3.040509,1.37623 -2.128535,0 -3.472555,-1.31206 -3.472555,-3.44058 l 9.041487,0 0,-2.22437 c 0,-3.46644 -2.348937,-6.28905 -5.936967,-6.28905 z m 42.647108,0 c -3.253588,0 -5.985001,2.62098 -5.985001,5.90498 l 0,2.54443 c 0,3.7097 2.548957,6.38507 6.289078,6.38507 2.006864,0 3.957346,-0.81602 5.264855,-2.33639 l -2.160336,-1.92032 c -0.821027,0.88181 -1.824254,1.37623 -3.040509,1.37623 -2.128535,0 -3.472606,-1.31206 -3.472606,-3.44058 l 9.025509,0 0,-2.22437 c 0,-3.46644 -2.332908,-6.28905 -5.92099,-6.28905 z m -53.496923,0.17603 0,14.48242 2.912487,0 0,-14.48242 -2.912487,0 z m -14.002368,2.70445 c 1.763623,0 3.042096,1.33929 3.072513,3.07251 l -6.145027,0 c 0.12162,-1.73322 1.278472,-3.07251 3.072514,-3.07251 z m 24.820177,0 c 1.763623,0 3.042096,1.33929 3.072515,3.07251 l -6.145029,0 c 0.121621,-1.73322 1.278473,-3.07251 3.072514,-3.07251 z m 42.647109,0 c 1.763623,0 3.042096,1.33929 3.072514,3.07251 l -6.145028,0 c 0.12162,-1.73322 1.278473,-3.07251 3.072514,-3.07251 z m 13.586297,0 c 1.67237,0 2.86445,1.3505 2.86445,2.9925 l 0,3.04051 c 0,1.73322 -1.10241,3.04051 -2.896454,3.04051 -1.915713,0 -2.880477,-1.47051 -2.880477,-3.26455 l 0,-2.81647 c 0,-1.70282 1.209642,-2.9925 2.912481,-2.9925 z"
       id="path3216-7-2" />
    <path
       sodipodi:nodetypes="cccccccc"
       inkscape:connector-curvature="0"
       id="path37333"
       d="m 42,205 -8,7 -34,0 0,38 85,0 0,-38 -35,0 z"
       style="color:#000000;fill:#bb3333;fill-opacity:1;fill-rule:nonzero;stroke:none;stroke-width:1;marker:none;visibility:visible;display:inline;overflow:visible;enable-background:accumulate" />
    <path
       style="font-size:medium;font-style:normal;font-variant:normal;font-weight:normal;font-stretch:normal;text-indent:0;text-align:start;text-decoration:none;line-height:normal;letter-spacing:normal;word-spacing:normal;text-transform:none;direction:ltr;block-progression:tb;writing-mode:lr-tb;text-anchor:start;baseline-shift:baseline;opacity:0.5;color:#000000;fill:url(#linearGradient3809);fill-opacity:1;fill-rule:nonzero;stroke:none;stroke-width:1.97157586;marker:none;visibility:visible;display:inline;overflow:visible;enable-background:accumulate;font-family:Sans;-inkscape-font-specification:Sans"
       d="m 42,205 -8,7 -34,0 0,38 0,0 85,0 0,-38 -35,0 z m 0,2 7,6 35,0 0,37 -83,0 0,-37 34,0 z"
       id="path37353"
       inkscape:connector-curvature="0"
       sodipodi:nodetypes="ccccccccccccccccc" />
    <rect
       style="color:#000000;fill:#ffffff;fill-opacity:1;fill-rule:nonzero;stroke:#a0a0a0;stroke-width:1;stroke-miterlimit:4;stroke-opacity:1;stroke-dasharray:none;marker:none;visibility:visible;display:inline;overflow:visible;enable-background:accumulate"
       id="rect37359"
       width="24.258638"
       height="24.258638"
       x="401.52817"
       y="-44.589222"
       transform="matrix(0.70710678,0.70710678,-0.70710678,0.70710678,0,0)"
       inkscape:export-xdpi="90"
       inkscape:export-ydpi="90"
       inkscape:export-filename="/Users/tristen/devseed/rw-drc/images/arrow.png" />
    <path
       style="fill:#ffffff;fill-opacity:1;fill-rule:nonzero;stroke:none;stroke-width:1.62999189;marker:none;visibility:visible;display:inline;overflow:visible;enable-background:accumulate"
       d="m 226.5,172.5 1,1 2.5,-2.5 2.5,2.5 1,-1 -2.5,-2.5 2.5,-2.5 -1,-1 -2.5,2.5 -2.5,-2.5 -1,1 2.5,2.5 -2.5,2.5 z"
       id="path7575"
       inkscape:connector-curvature="0" />
    <path
       sodipodi:type="arc"
       style="fill:#fc8283;fill-opacity:1;stroke:none;display:inline"
       id="path5606"
       sodipodi:cx="19.764706"
       sodipodi:cy="9.6764708"
       sodipodi:rx="9.4117651"
       sodipodi:ry="9.4411764"
       d="m 29.176471,9.6764708 c 0,5.2142182 -4.213791,9.4411762 -9.411765,9.4411762 -5.197975,0 -9.411765,-4.226958 -9.411765,-9.4411762 0,-5.2142178 4.21379,-9.44117646 9.411765,-9.44117646 5.197974,0 9.411765,4.22695866 9.411765,9.44117646 z"
       transform="matrix(0.95624996,0,0,0.95327103,206.1,185.7757)" />
    <path
       style="fill:url(#radialGradient6076);fill-opacity:1;stroke:#ffffff;stroke-width:0.60000002;stroke-miterlimit:4;stroke-opacity:1;stroke-dasharray:none"
       d="m 216.30003,261.16025 3.65672,4.4776 -0.48508,5.1493 4.44776,-1.2239 9.78053,4.28 c -1.5794,-2.263 -1.95745,-2.1753 -5.44717,-7.3115 l 4.50992,-3.8939 -6.2985,-0.7388 -3.18558,-5.7423 -1.69502,5.1901 z"
       id="path3828"
       inkscape:connector-curvature="0"
       sodipodi:nodetypes="ccccccccccc"
       inkscape:export-filename="/Users/dj/Documents/MapBox/project/DRC/images/bw-large.png"
       inkscape:export-xdpi="115.37092"
       inkscape:export-ydpi="115.37092"
       inkscape:transform-center-x="1.2198825"
       inkscape:transform-center-y="0.514119" />
    <g
       style="display:inline"
       transform="translate(214.47167,-742.57505)"
       id="layer1-1"
       inkscape:label="Layer 1">
      <path
         inkscape:transform-center-y="0.514119"
         inkscape:transform-center-x="1.2198825"
         inkscape:export-ydpi="115.37092"
         inkscape:export-xdpi="115.37092"
         inkscape:export-filename="/Users/dj/Documents/MapBox/project/DRC/images/bw-large.png"
         sodipodi:nodetypes="ccccccccccc"
         inkscape:connector-curvature="0"
         id="path3828-8"
         d="m 1.8283607,1038.7353 3.6567146,4.4776 L 5,1048.3622 l 4.4477618,-1.2239 9.7805302,4.28 c -1.579405,-2.263 -1.957453,-2.1753 -5.447172,-7.3115 l 4.509924,-3.8939 -6.298508,-0.7388 -3.1855802,-5.7423 -1.6950153,5.1901 z"
         style="fill:url(#radialGradient5365-6);fill-opacity:1;stroke:#ffffff;stroke-width:0.60000002;stroke-miterlimit:4;stroke-opacity:1;stroke-dasharray:none" />
    </g>
    <path
       style="font-size:medium;font-style:normal;font-variant:normal;font-weight:normal;font-stretch:normal;text-indent:0;text-align:start;text-decoration:none;line-height:normal;letter-spacing:normal;word-spacing:normal;text-transform:none;direction:ltr;block-progression:tb;writing-mode:lr-tb;text-anchor:start;baseline-shift:baseline;color:#000000;fill:#ffffff;fill-opacity:1;stroke:none;stroke-width:1.28712666;marker:none;visibility:visible;display:inline;overflow:visible;enable-background:accumulate;font-family:Sans;-inkscape-font-specification:Sans"
       d="M 224.98445,185 C 219.46346,185 215,189.49768 215,195.01551 215,200.53335 219.46346,205 224.98445,205 230.50544,205 235,200.53335 235,195.01551 235,189.49768 230.50544,185 224.98445,185 z m 0,1.27132 c 4.82645,0 8.74028,3.91443 8.74028,8.74419 0,4.82976 -3.91383,8.71318 -8.74028,8.71318 -4.82646,0 -8.70918,-3.88342 -8.70918,-8.71318 0,-4.82976 3.88272,-8.74419 8.70918,-8.74419 z"
       id="path6067"
       inkscape:connector-curvature="0" />
    <g
       style="fill:#505050;fill-opacity:1;display:inline"
       transform="matrix(0.90832354,0,0,0.90808651,215.89553,-711.57371)"
       id="layer1-63"
       inkscape:label="Layer 1">
      <path
         style="font-size:medium;font-style:normal;font-variant:normal;font-weight:normal;font-stretch:normal;text-indent:0;text-align:start;text-decoration:none;line-height:normal;letter-spacing:normal;word-spacing:normal;text-transform:none;direction:ltr;block-progression:tb;writing-mode:lr-tb;text-anchor:start;baseline-shift:baseline;color:#000000;fill:#505050;fill-opacity:1;fill-rule:nonzero;stroke:none;stroke-width:1.28712666;marker:none;visibility:visible;display:inline;overflow:visible;enable-background:accumulate;font-family:Sans;-inkscape-font-specification:Sans"
         d="m 10.006256,1025.8645 c -6.0782192,0 -10.99217143,4.9529 -10.99217143,11.0292 0,6.0763 4.91395223,10.9951 10.99217143,10.9951 6.078219,0 11.026415,-4.9188 11.026415,-10.9951 0,-6.0763 -4.948196,-11.0292 -11.026415,-11.0292 z m 0,1.4 c 5.313587,0 9.62243,4.3105 9.62243,9.6292 0,5.3185 -4.308843,9.5951 -9.62243,9.5951 -5.3135871,0 -9.58818699,-4.2766 -9.58818699,-9.5951 0,-5.3187 4.27459989,-9.6292 9.58818699,-9.6292 z"
         id="path5606-8"
         inkscape:connector-curvature="0" />
    </g>
    <path
       style="color:#000000;fill:url(#linearGradient8783);fill-opacity:1;fill-rule:nonzero;stroke:none;stroke-width:2;marker:none;visibility:visible;display:inline;overflow:visible;enable-background:accumulate"
       d="m -9.2128161,352.51353 0,30 239.9999961,0 0,-30 z"
       id="rect3813"
       inkscape:connector-curvature="0"
       sodipodi:nodetypes="ccccc" />
  </g>
</svg>
